<svg width="21" height="21" viewBox="0 0 21 21" fill="none" xmlns="http://www.w3.org/2000/svg">
<path fill-rule="evenodd" clip-rule="evenodd" d="M0 10.5C0 4.70101 4.70101 0 10.5 0C16.299 0 21 4.70101 21 10.5C21 16.299 16.299 21 10.5 21C4.70101 21 0 16.299 0 10.5ZM10.5 5.25C13.3875 5.25 15.75 7.6125 15.75 10.5C15.75 13.125 13.8469 15.3562 11.2219 15.75V12.0094H12.4688L12.7312 10.5H11.2875V9.51562C11.2875 9.12187 11.4844 8.72813 12.1406 8.72813H12.7969V7.41563C12.7969 7.41563 12.2063 7.28438 11.6156 7.28438C10.4344 7.28438 9.64687 8.00625 9.64687 9.31875V10.5H8.33437V12.0094H9.64687V15.6844C7.15312 15.2906 5.25 13.125 5.25 10.5C5.25 7.6125 7.6125 5.25 10.5 5.25Z" fill="#B4B4B4"/>
</svg>
