<svg width="21" height="21" viewBox="0 0 21 21" fill="none" xmlns="http://www.w3.org/2000/svg">
<path d="M10.5 12.3375C9.51562 12.3375 8.6625 11.55 8.6625 10.5C8.6625 9.51562 9.45 8.6625 10.5 8.6625C11.4844 8.6625 12.3375 9.45 12.3375 10.5C12.3375 11.4844 11.4844 12.3375 10.5 12.3375Z" fill="#B4B4B4"/>
<path fill-rule="evenodd" clip-rule="evenodd" d="M12.7312 6.0375H8.26875C7.74375 6.10312 7.48125 6.16875 7.28438 6.23437C7.02188 6.3 6.825 6.43125 6.62813 6.62812C6.47234 6.78391 6.39874 6.93969 6.30977 7.12799C6.28632 7.17762 6.26174 7.22964 6.23438 7.28437C6.22422 7.31483 6.2125 7.34686 6.19994 7.38118C6.13128 7.56875 6.0375 7.82497 6.0375 8.26875V12.7312C6.10313 13.2562 6.16875 13.5187 6.23438 13.7156C6.3 13.9781 6.43125 14.175 6.62813 14.3719C6.78391 14.5277 6.9397 14.6013 7.128 14.6902C7.17766 14.7137 7.22959 14.7382 7.28438 14.7656C7.31483 14.7758 7.34686 14.7875 7.38118 14.8001C7.56875 14.8687 7.82497 14.9625 8.26875 14.9625H12.7312C13.2562 14.8969 13.5188 14.8312 13.7156 14.7656C13.9781 14.7 14.175 14.5687 14.3719 14.3719C14.5277 14.2161 14.6013 14.0603 14.6902 13.872C14.7137 13.8224 14.7382 13.7704 14.7656 13.7156C14.7758 13.6852 14.7875 13.6531 14.8001 13.6188C14.8687 13.4312 14.9625 13.175 14.9625 12.7312V8.26875C14.8969 7.74375 14.8313 7.48125 14.7656 7.28437C14.7 7.02187 14.5687 6.825 14.3719 6.62812C14.2161 6.47234 14.0603 6.39873 13.872 6.30977C13.8224 6.28634 13.7703 6.26172 13.7156 6.23437C13.6852 6.22422 13.6531 6.2125 13.6188 6.19993C13.4313 6.13128 13.175 6.0375 12.7312 6.0375ZM10.5 7.67812C8.925 7.67812 7.67812 8.925 7.67812 10.5C7.67812 12.075 8.925 13.3219 10.5 13.3219C12.075 13.3219 13.3219 12.075 13.3219 10.5C13.3219 8.925 12.075 7.67812 10.5 7.67812ZM14.0437 7.6125C14.0437 7.97494 13.7499 8.26875 13.3875 8.26875C13.0251 8.26875 12.7312 7.97494 12.7312 7.6125C12.7312 7.25006 13.0251 6.95625 13.3875 6.95625C13.7499 6.95625 14.0437 7.25006 14.0437 7.6125Z" fill="#B4B4B4"/>
<path fill-rule="evenodd" clip-rule="evenodd" d="M0 10.5C0 4.70101 4.70101 0 10.5 0C16.299 0 21 4.70101 21 10.5C21 16.299 16.299 21 10.5 21C4.70101 21 0 16.299 0 10.5ZM8.26875 5.05312H12.7312C13.3219 5.11875 13.7156 5.18437 14.0437 5.31562C14.4375 5.5125 14.7 5.64375 15.0281 5.97187C15.3562 6.3 15.5531 6.62812 15.6844 6.95625C15.8156 7.28437 15.9469 7.67812 15.9469 8.26875V12.7312C15.8812 13.3219 15.8156 13.7156 15.6844 14.0437C15.4875 14.4375 15.3562 14.7 15.0281 15.0281C14.7 15.3562 14.3719 15.5531 14.0437 15.6844C13.7156 15.8156 13.3219 15.9469 12.7312 15.9469H8.26875C7.67813 15.8812 7.28438 15.8156 6.95625 15.6844C6.5625 15.4875 6.3 15.3562 5.97188 15.0281C5.64375 14.7 5.44688 14.3719 5.31563 14.0437C5.18438 13.7156 5.05312 13.3219 5.05312 12.7312V8.26875C5.11875 7.67812 5.18438 7.28437 5.31563 6.95625C5.5125 6.5625 5.64375 6.3 5.97188 5.97187C6.3 5.64375 6.62813 5.44687 6.95625 5.31562C7.28438 5.18437 7.67813 5.05312 8.26875 5.05312Z" fill="#B4B4B4"/>
</svg>
