<svg width="21" height="21" viewBox="0 0 21 21" fill="none" xmlns="http://www.w3.org/2000/svg">
<path fill-rule="evenodd" clip-rule="evenodd" d="M0 10.5C0 4.70101 4.70101 0 10.5 0C16.299 0 21 4.70101 21 10.5C21 16.299 16.299 21 10.5 21C4.70101 21 0 16.299 0 10.5ZM5.38125 8.72813V15.75H7.6125V8.72813H5.38125ZM5.25 6.49688C5.25 7.21875 5.775 7.74375 6.49688 7.74375C7.21875 7.74375 7.74375 7.21875 7.74375 6.49688C7.74375 5.775 7.21875 5.25 6.49688 5.25C5.84063 5.25 5.25 5.775 5.25 6.49688ZM13.5188 15.75H15.6188V11.4188C15.6188 9.25312 14.3062 8.53125 13.0594 8.53125C11.9437 8.53125 11.1562 9.25312 10.9594 9.7125V8.72813H8.85938V15.75H11.0906V12.0094C11.0906 11.025 11.7469 10.5 12.4031 10.5C13.0594 10.5 13.5188 10.8281 13.5188 11.9437V15.75Z" fill="#B4B4B4"/>
</svg>
