<svg width="21" height="21" viewBox="0 0 21 21" fill="none" xmlns="http://www.w3.org/2000/svg">
<circle cx="10.5" cy="10.5" r="10.5" fill="#B4B4B4"/>
<path d="M16.4376 13.8938C14.3307 12.8583 13.995 11.2595 13.98 11.1409C13.9619 10.9973 13.9414 10.8843 14.0975 10.7382C14.248 10.5971 14.9158 10.1774 15.101 10.0461C15.4073 9.82873 15.5421 9.61168 15.4427 9.34487C15.3732 9.16028 15.2039 9.09076 15.0256 9.09076C14.9694 9.09093 14.9133 9.09732 14.8584 9.10982C14.5219 9.18393 14.1952 9.3551 14.0061 9.40133C13.9834 9.40728 13.96 9.41048 13.9366 9.41086C13.8358 9.41086 13.7975 9.36533 13.8073 9.24216C13.8309 8.86877 13.8809 8.13997 13.8229 7.45917C13.7433 6.5225 13.4457 6.0584 13.0929 5.64795C12.9223 5.44889 12.1297 4.59375 10.6003 4.59375C9.0708 4.59375 8.27931 5.44889 8.10968 5.64548C7.75582 6.05593 7.45862 6.52003 7.37971 7.4567C7.32166 8.1375 7.3738 8.86594 7.39535 9.23969C7.40231 9.35686 7.36685 9.40839 7.26605 9.40839C7.24259 9.40798 7.21925 9.40479 7.19653 9.39886C7.00778 9.35263 6.68103 9.18146 6.34455 9.10734C6.28966 9.09485 6.2336 9.08846 6.17735 9.08829C5.99834 9.08829 5.82975 9.15887 5.76023 9.34239C5.66081 9.60921 5.79499 9.82626 6.10227 10.0437C6.28754 10.175 6.95529 10.5942 7.1058 10.7358C7.26153 10.8819 7.24137 10.9948 7.22329 11.1384C7.20834 11.2588 6.87221 12.8576 4.76573 13.8913C4.64233 13.952 4.43238 14.0805 4.80258 14.288C5.38377 14.6141 5.77066 14.5791 6.07133 14.7757C6.32647 14.9427 6.17561 15.3026 6.36123 15.4325C6.58926 15.5924 7.26327 15.4212 8.13401 15.7131C8.86398 15.9573 9.30752 16.6473 10.602 16.6473C11.8965 16.6473 12.3529 15.9541 13.07 15.7131C13.939 15.4212 14.6144 15.5924 14.8428 15.4325C15.028 15.3026 14.8775 14.9427 15.1327 14.7757C15.4333 14.5791 15.8199 14.6141 16.4014 14.288C16.7709 14.0829 16.561 13.9545 16.4376 13.8938Z" fill="white"/>
</svg>
