<svg width="21" height="21" viewBox="0 0 21 21" fill="none" xmlns="http://www.w3.org/2000/svg">
<path fill-rule="evenodd" clip-rule="evenodd" d="M10.5 21C4.70101 21 0 16.299 0 10.5C0 4.70101 4.70101 0 10.5 0C16.299 0 21 4.70101 21 10.5C21 16.299 16.299 21 10.5 21ZM10.954 7.87984C10.0136 8.27099 8.13414 9.08056 5.31557 10.3086C4.85788 10.4906 4.61812 10.6686 4.59629 10.8427C4.55941 11.137 4.92788 11.2528 5.42964 11.4106C5.49789 11.4321 5.56861 11.4543 5.64111 11.4779C6.13477 11.6384 6.79883 11.8261 7.14404 11.8335C7.45719 11.8403 7.80669 11.7112 8.19255 11.4462C10.826 9.66858 12.1854 8.77006 12.2708 8.75068C12.331 8.73702 12.4144 8.71984 12.471 8.77008C12.5275 8.82033 12.5219 8.91549 12.516 8.94102C12.4795 9.09663 11.0331 10.4413 10.2846 11.1372C10.0512 11.3541 9.8857 11.508 9.85186 11.5432C9.77606 11.6219 9.69881 11.6964 9.62457 11.7679C9.16595 12.21 8.82203 12.5416 9.64361 13.083C10.0384 13.3432 10.3544 13.5583 10.6696 13.773C11.0138 14.0074 11.3571 14.2412 11.8013 14.5324C11.9145 14.6066 12.0226 14.6836 12.1278 14.7587C12.5284 15.0443 12.8883 15.3008 13.3329 15.2599C13.5913 15.2361 13.8582 14.9932 13.9937 14.2687C14.314 12.5564 14.9436 8.84631 15.0891 7.31749C15.1018 7.18355 15.0858 7.01213 15.0729 6.93688C15.06 6.86162 15.0331 6.75441 14.9353 6.67504C14.8195 6.58104 14.6406 6.56122 14.5607 6.56256C14.197 6.56904 13.6391 6.76304 10.954 7.87984Z" fill="#B4B4B4"/>
</svg>
