<svg width="21" height="21" viewBox="0 0 21 21" fill="none" xmlns="http://www.w3.org/2000/svg">
<path fill-rule="evenodd" clip-rule="evenodd" d="M14.2514 11.0622L12.7514 12.5622H11.2514L9.93892 13.8747V12.5622H8.25142V6.93721H14.2514V11.0622ZM13.1264 8.24971H12.3764V10.4997H13.1264V8.24971ZM10.3139 8.24971H11.0639V10.4997H10.3139V8.24971Z" fill="#B4B4B4"/>
<path fill-rule="evenodd" clip-rule="evenodd" d="M10.5 0C16.299 0 21 4.70101 21 10.5C21 16.299 16.299 21 10.5 21C4.70101 21 0 16.299 0 10.5C0 4.70101 4.70101 0 10.5 0ZM7.87642 6.18721L6.00142 8.06221V14.8122H8.25142V16.6872L10.1264 14.8122H11.6264L15.0014 11.4372V6.18721H7.87642Z" fill="#B4B4B4"/>
</svg>
