<svg width="21" height="21" viewBox="0 0 21 21" fill="none" xmlns="http://www.w3.org/2000/svg">
<path fill-rule="evenodd" clip-rule="evenodd" d="M0 10.5C0 4.70101 4.70101 0 10.5 0C16.299 0 21 4.70101 21 10.5C21 16.299 16.299 21 10.5 21C4.70101 21 0 16.299 0 10.5ZM14.5031 7.54688C14.9625 7.48125 15.3562 7.41563 15.75 7.21875C15.4875 7.67812 15.0938 8.07188 14.6344 8.33437C14.7656 11.4187 12.5344 14.7656 8.53125 14.7656C7.35 14.7656 6.23438 14.3719 5.25 13.7812C6.36562 13.9125 7.54688 13.5844 8.33437 12.9937C7.35 12.9937 6.5625 12.3375 6.3 11.4844C6.62813 11.55 6.95625 11.4844 7.28438 11.4187C6.3 11.1562 5.57812 10.2375 5.57812 9.25313C5.90625 9.38438 6.23438 9.51562 6.5625 9.51562C5.64375 8.85938 5.31563 7.6125 5.90625 6.62813C7.02187 7.94063 8.59688 8.79375 10.3688 8.85938C10.0406 7.54688 11.0906 6.23438 12.4688 6.23438C13.0594 6.23438 13.65 6.49687 14.0437 6.89062C14.5687 6.75938 15.0281 6.62812 15.4219 6.36562C15.2906 6.89062 14.9625 7.28438 14.5031 7.54688Z" fill="#B4B4B4"/>
</svg>
