<svg width="21" height="21" viewBox="0 0 21 21" fill="none" xmlns="http://www.w3.org/2000/svg">
<path d="M12.2063 10.5L9.45 8.925V12.075L12.2063 10.5Z" fill="#B4B4B4"/>
<path fill-rule="evenodd" clip-rule="evenodd" d="M0 10.5C0 4.70101 4.70101 0 10.5 0C16.299 0 21 4.70101 21 10.5C21 16.299 16.299 21 10.5 21C4.70101 21 0 16.299 0 10.5ZM14.5688 7.02188C15.0281 7.15313 15.3563 7.48125 15.4875 7.94063C15.75 8.79375 15.75 10.5 15.75 10.5C15.75 10.5 15.75 12.2063 15.5531 13.0594C15.4219 13.5188 15.0937 13.8469 14.6344 13.9781C13.7812 14.175 10.5 14.175 10.5 14.175C10.5 14.175 7.15312 14.175 6.36562 13.9781C5.90625 13.8469 5.57813 13.5188 5.44688 13.0594C5.25 12.2063 5.25 10.5 5.25 10.5C5.25 10.5 5.25 8.79375 5.38125 7.94063C5.5125 7.48125 5.84063 7.15313 6.3 7.02188C7.15313 6.825 10.4344 6.825 10.4344 6.825C10.4344 6.825 13.7813 6.825 14.5688 7.02188Z" fill="#B4B4B4"/>
</svg>
