<svg width="353" height="253" viewBox="0 0 353 253" fill="none" xmlns="http://www.w3.org/2000/svg">
<g filter="url(#filter0_d)">
<path d="M174.373 229C234.779 229 283.747 220.941 283.747 210.999C283.747 201.058 234.779 192.999 174.373 192.999C113.968 192.999 65 201.058 65 210.999C65 220.941 113.968 229 174.373 229Z" fill="#C1C1C1"/>
<path d="M173.16 226.309C228.999 226.309 274.266 216.614 274.266 204.655C274.266 192.696 228.999 183.001 173.16 183.001C117.32 183.001 72.0537 192.696 72.0537 204.655C72.0537 216.614 117.32 226.309 173.16 226.309Z" fill="#FFA321"/>
<path d="M72.0479 200.705V204.65C72.0479 204.65 81.7124 206.184 81.5578 206.11C81.409 206.035 72.0479 200.705 72.0479 200.705Z" fill="#FFA321"/>
<path d="M274.266 200.962V204.655L270.808 207.713L268.884 201.644L274.266 200.962Z" fill="#FFA321"/>
<path d="M173.16 222.616C228.999 222.616 274.266 212.921 274.266 200.962C274.266 189.003 228.999 179.309 173.16 179.309C117.32 179.309 72.0537 189.003 72.0537 200.962C72.0537 212.921 117.32 222.616 173.16 222.616Z" fill="#FFE89A"/>
<path opacity="0.5" d="M173.16 218.946C217.492 218.946 253.431 210.631 253.431 200.373C253.431 190.115 217.492 181.799 173.16 181.799C128.827 181.799 92.8887 190.115 92.8887 200.373C92.8887 210.631 128.827 218.946 173.16 218.946Z" fill="#F2B23F"/>
<path d="M238.298 149.822V198.93C238.298 201.878 236.632 204.483 234.233 205.216C192.958 217.812 151.689 217.812 110.426 205.216C108.021 204.483 106.361 201.878 106.361 198.93V149.822H238.298Z" fill="#00A0D7"/>
<path opacity="0.05" d="M238.293 151.26V167.108C235.625 168.19 232.699 168.705 229.819 168.613C227.277 168.539 224.706 168.024 222.193 168.447C216.656 169.398 212.62 174.688 207.072 175.581C203.07 176.228 199.131 174.465 195.169 173.612C190.176 172.524 184.874 172.902 180.088 174.677C174.637 176.692 169.375 180.534 163.644 179.623C156.842 178.536 151.638 170.926 144.848 172.026C142.008 172.49 139.597 174.453 136.78 174.986C130.282 176.217 124.602 169.69 117.995 169.633C114.033 169.604 109.527 171.802 106.35 169.633V151.26H238.293Z" fill="#070707"/>
<path d="M238.299 175.999V188.464C194.585 198.415 149.995 198.128 106.355 187.588V175.095C149.966 185.887 194.602 186.196 238.299 175.999Z" fill="white"/>
<path opacity="0.05" d="M197.934 149.96C197.934 149.96 210.29 198.592 182.602 214.532C199.812 213.661 217.023 210.604 234.234 205.354C236.638 204.621 238.299 202.016 238.299 199.067V149.96H197.934Z" fill="#070707"/>
<path d="M238.293 149.822V165.67C235.625 166.752 232.699 167.268 229.819 167.176C227.277 167.102 224.706 166.586 222.193 167.01C216.656 167.961 212.62 173.251 207.072 174.144C203.07 174.791 199.131 173.028 195.169 172.174C190.176 171.087 184.874 171.465 180.088 173.239C174.637 175.255 169.375 179.097 163.644 178.186C156.842 177.098 151.638 169.489 144.848 170.589C142.008 171.052 139.597 173.016 136.78 173.549C130.282 174.78 124.602 168.253 117.995 168.195C114.033 168.167 109.527 170.365 106.35 168.195V149.822H238.293Z" fill="#F4F4F4"/>
<path opacity="0.2" d="M113.529 179.698C113.455 184.193 113.38 188.687 113.306 193.181C113.26 195.787 113.249 198.523 114.468 200.825C116.106 203.917 119.724 205.571 123.217 205.715C123.755 205.737 124.316 205.72 124.786 205.463C125.753 204.924 125.913 203.539 125.496 202.508C125.078 201.483 124.247 200.693 123.566 199.817C121.201 196.783 120.64 192.695 120.852 188.853C121.064 185.011 121.946 181.227 122.106 177.379C122.226 174.539 120.297 170.503 116.724 171.327C113.432 172.1 113.569 177.144 113.529 179.698Z" fill="white"/>
<path d="M172.323 164.571C208.757 164.571 238.292 157.83 238.292 149.513C238.292 141.197 208.757 134.455 172.323 134.455C135.89 134.455 106.354 141.197 106.354 149.513C106.354 157.83 135.89 164.571 172.323 164.571Z" fill="#FDFEFF"/>
<path d="M173.137 160.495C201.65 160.495 224.764 154.891 224.764 147.979C224.764 141.066 201.65 135.463 173.137 135.463C144.625 135.463 121.511 141.066 121.511 147.979C121.511 154.891 144.625 160.495 173.137 160.495Z" fill="#F4F4F4"/>
<path d="M172.324 163.495C136.678 163.495 107.655 157.042 106.413 148.975C106.384 149.153 106.355 149.33 106.355 149.513C106.355 157.832 135.893 164.571 172.324 164.571C208.761 164.571 238.293 157.827 238.293 149.513C238.293 149.336 238.259 149.153 238.236 148.975C236.993 157.042 207.971 163.495 172.324 163.495Z" fill="#F4F4F4"/>
<path d="M218.523 113.196V147.125C218.523 149.164 217.373 150.961 215.712 151.465C187.194 160.168 158.681 160.168 130.168 151.465C128.508 150.961 127.357 149.158 127.357 147.125V113.196H218.523Z" fill="#00A0D7"/>
<path opacity="0.05" d="M218.523 114.187V125.14C216.68 125.884 214.659 126.245 212.666 126.182C210.908 126.13 209.133 125.775 207.399 126.067C203.574 126.726 200.786 130.379 196.955 130.997C194.19 131.444 191.47 130.224 188.734 129.634C185.287 128.879 181.623 129.142 178.313 130.367C174.546 131.758 170.91 134.415 166.954 133.785C162.253 133.03 158.658 127.779 153.969 128.535C152.011 128.856 150.344 130.213 148.392 130.579C143.903 131.426 139.976 126.92 135.412 126.88C132.676 126.863 129.561 128.38 127.368 126.88V114.187H218.523Z" fill="#070707"/>
<path d="M218.524 131.283V139.894C188.322 146.77 157.513 146.57 127.363 139.287V130.653C157.49 138.114 188.333 138.325 218.524 131.283Z" fill="white"/>
<path opacity="0.05" d="M190.635 113.288C190.635 113.288 199.171 146.885 180.042 157.901C191.934 157.299 203.826 155.187 215.712 151.557C217.372 151.053 218.523 149.249 218.523 147.217V113.288H190.635Z" fill="#070707"/>
<path d="M218.523 113.196V124.149C216.68 124.893 214.659 125.254 212.666 125.191C210.908 125.14 209.133 124.785 207.399 125.077C203.574 125.735 200.786 129.388 196.955 130.006C194.19 130.453 191.47 129.233 188.734 128.644C185.287 127.888 181.623 128.151 178.313 129.376C174.546 130.768 170.91 133.424 166.954 132.795C162.253 132.039 158.658 126.789 153.969 127.544C152.011 127.865 150.344 129.222 148.392 129.588C143.903 130.436 139.976 125.93 135.412 125.89C132.676 125.872 129.561 127.39 127.368 125.89V113.196H218.523Z" fill="#F4F4F4"/>
<path opacity="0.2" d="M132.315 133.836C132.263 136.94 132.212 140.049 132.16 143.152C132.132 144.95 132.12 146.839 132.962 148.431C134.096 150.566 136.592 151.711 139.008 151.809C139.38 151.826 139.77 151.814 140.09 151.637C140.76 151.265 140.869 150.309 140.583 149.599C140.296 148.889 139.718 148.345 139.248 147.744C137.611 145.648 137.227 142.825 137.371 140.169C137.514 137.512 138.126 134.901 138.241 132.245C138.327 130.281 136.993 127.493 134.525 128.065C132.252 128.586 132.349 132.073 132.315 133.836Z" fill="white"/>
<path d="M172.942 123.382C198.116 123.382 218.523 118.724 218.523 112.979C218.523 107.233 198.116 102.576 172.942 102.576C147.769 102.576 127.362 107.233 127.362 112.979C127.362 118.724 147.769 123.382 172.942 123.382Z" fill="#FDFEFF"/>
<path d="M173.367 121.264C195.969 121.264 214.292 117.08 214.292 111.92C214.292 106.759 195.969 102.576 173.367 102.576C150.764 102.576 132.441 106.759 132.441 111.92C132.441 117.08 150.764 121.264 173.367 121.264Z" fill="white"/>
<path d="M172.943 122.644C148.318 122.644 128.262 118.183 127.403 112.613C127.386 112.739 127.363 112.859 127.363 112.985C127.363 118.733 147.768 123.388 172.943 123.388C198.118 123.388 218.524 118.727 218.524 112.985C218.524 112.859 218.501 112.739 218.484 112.613C217.619 118.183 197.568 122.644 172.943 122.644Z" fill="#F4F4F4"/>
<path d="M148.249 111.147C150.228 111.147 151.833 110.655 151.833 110.048C151.833 109.441 150.228 108.949 148.249 108.949C146.269 108.949 144.665 109.441 144.665 110.048C144.665 110.655 146.269 111.147 148.249 111.147Z" fill="#F4F4F4"/>
<path d="M193.737 111.147C195.717 111.147 197.322 110.655 197.322 110.048C197.322 109.441 195.717 108.949 193.737 108.949C191.758 108.949 190.153 109.441 190.153 110.048C190.153 110.655 191.758 111.147 193.737 111.147Z" fill="#F4F4F4"/>
<path d="M175.599 114.187C175.599 114.903 173.704 115.487 171.368 115.487C169.032 115.487 167.137 114.903 167.137 114.187C167.137 113.471 169.032 112.887 171.368 112.887C173.704 112.887 175.599 113.471 175.599 114.187Z" fill="#F4F4F4"/>
<path d="M148.443 77.808C148.357 77.808 148.288 77.7393 148.288 77.6534V73.886C148.288 73.8002 148.357 73.7314 148.443 73.7314C148.529 73.7314 148.597 73.8002 148.597 73.886V77.6534C148.597 77.7393 148.529 77.808 148.443 77.808Z" fill="white"/>
<path d="M147.801 77.3268L146.37 80.2411H150.521L149.09 77.3268C148.826 76.7944 148.065 76.7944 147.801 77.3268Z" fill="#23ADC3"/>
<path d="M150.521 80.2471V110.237C149.639 110.672 148.758 110.827 147.876 110.712C147.372 110.644 146.874 110.489 146.37 110.237V80.2471H150.521Z" fill="#23ADC3"/>
<path d="M150.521 103.961V106.383L146.37 107.958V105.53L150.521 103.961Z" fill="white"/>
<path d="M150.521 98.5684V100.996L146.37 102.565V100.137L150.521 98.5684Z" fill="white"/>
<path d="M150.521 93.1748V95.6081L146.37 97.1712V94.7493L150.521 93.1748Z" fill="white"/>
<path d="M150.521 87.7871V90.2147L146.37 91.7835V89.3559L150.521 87.7871Z" fill="white"/>
<path d="M150.521 82.394V84.8274L146.37 86.3961V83.9628L150.521 82.394Z" fill="white"/>
<path opacity="0.1" d="M150.521 80.2471V110.237C149.639 110.672 148.757 110.827 147.875 110.712C150.566 105.8 149.925 80.2471 149.925 80.2471H150.521Z" fill="#FF0000"/>
<path d="M148.265 69.6375C148.265 69.6375 146.101 72.3628 148.477 74.7675C148.477 74.7675 150.567 72.2025 148.265 69.6375Z" fill="#FFECC8"/>
<path d="M148.316 70.7256C148.316 70.7256 146.61 72.8726 148.482 74.7678C148.482 74.7678 150.131 72.7467 148.316 70.7256Z" fill="#FCA032"/>
<path d="M148.328 71.3091C148.328 71.3091 146.868 73.147 148.471 74.7673C148.471 74.7673 149.879 73.0382 148.328 71.3091Z" fill="#F28D20"/>
<path d="M171.368 77.338C171.271 77.338 171.19 77.2579 171.19 77.1605V72.855C171.19 72.7576 171.271 72.6775 171.368 72.6775C171.465 72.6775 171.545 72.7576 171.545 72.855V77.1605C171.545 77.2579 171.465 77.338 171.368 77.338Z" fill="white"/>
<path d="M170.635 76.7888L168.998 80.121H173.744L172.106 76.7888C171.803 76.1762 170.933 76.1762 170.635 76.7888Z" fill="#FB0286"/>
<path d="M173.739 80.1208V114.388C172.731 114.886 171.723 115.063 170.716 114.926C170.143 114.846 169.57 114.668 168.992 114.388V80.1208H173.739Z" fill="#FB0286"/>
<path d="M173.738 107.214V109.99L168.998 111.783V109.006L173.738 107.214Z" fill="white"/>
<path d="M173.738 101.059V103.83L168.998 105.622V102.851L173.738 101.059Z" fill="white"/>
<path d="M173.738 94.8984V97.6696L168.998 99.4616V96.6905L173.738 94.8984Z" fill="white"/>
<path d="M173.738 88.7375V91.5144L168.998 93.3065V90.5296L173.738 88.7375Z" fill="white"/>
<path d="M173.738 82.5769V85.3538L168.998 87.1458V84.369L173.738 82.5769Z" fill="white"/>
<path opacity="0.1" d="M173.738 80.1208V114.388C172.73 114.886 171.723 115.063 170.715 114.926C173.789 109.315 173.057 80.1208 173.057 80.1208H173.738Z" fill="#FF0000"/>
<path d="M171.163 68C171.163 68 168.695 71.1089 171.403 73.8571C171.409 73.8571 173.796 70.9314 171.163 68Z" fill="#FFECC8"/>
<path d="M171.225 69.2422C171.225 69.2422 169.278 71.6927 171.414 73.8569C171.414 73.8569 173.298 71.5495 171.225 69.2422Z" fill="#FCA032"/>
<path d="M171.237 69.9124C171.237 69.9124 169.571 72.0079 171.403 73.8629C171.397 73.8572 173.012 71.8876 171.237 69.9124Z" fill="#F28D20"/>
<path d="M193.738 77.808C193.652 77.808 193.583 77.7393 193.583 77.6534V73.886C193.583 73.8002 193.652 73.7314 193.738 73.7314C193.824 73.7314 193.893 73.8002 193.893 73.886V77.6534C193.893 77.7393 193.824 77.808 193.738 77.808Z" fill="white"/>
<path d="M193.091 77.3268L191.66 80.2411H195.811L194.379 77.3268C194.116 76.7944 193.354 76.7944 193.091 77.3268Z" fill="#FBC20D"/>
<path d="M195.811 80.2471V110.237C194.929 110.672 194.047 110.827 193.165 110.712C192.662 110.644 192.164 110.489 191.66 110.237V80.2471H195.811Z" fill="#FBC20D"/>
<path d="M195.811 103.962V106.384L191.66 107.958V105.53L195.811 103.962Z" fill="white"/>
<path d="M195.811 98.5686V100.996L191.66 102.565V100.137L195.811 98.5686Z" fill="white"/>
<path d="M195.811 93.175V95.6084L191.66 97.1714V94.7496L195.811 93.175Z" fill="white"/>
<path d="M195.811 87.7874V90.2149L191.66 91.7837V89.3561L195.811 87.7874Z" fill="white"/>
<path d="M195.811 82.3943V84.8276L191.66 86.3964V83.9631L195.811 82.3943Z" fill="white"/>
<path opacity="0.1" d="M195.81 80.2471V110.237C194.928 110.672 194.047 110.827 193.165 110.712C195.856 105.8 195.215 80.2471 195.215 80.2471H195.81Z" fill="#FF0000"/>
<path d="M193.555 69.6377C193.555 69.6377 191.391 72.363 193.767 74.7677C193.767 74.7677 195.862 72.2027 193.555 69.6377Z" fill="#FFECC8"/>
<path d="M193.613 70.7258C193.613 70.7258 191.907 72.8729 193.779 74.768C193.779 74.768 195.422 72.7469 193.613 70.7258Z" fill="#FCA032"/>
<path d="M193.618 71.3093C193.618 71.3093 192.158 73.1472 193.761 74.7675C193.761 74.7675 195.176 73.0384 193.618 71.3093Z" fill="#F28D20"/>
<path d="M206.27 154.437C206.27 155.874 205.102 157.036 203.671 157.036C203.505 157.036 203.345 157.025 203.19 156.991C201.982 156.767 201.066 155.708 201.066 154.437C201.066 152.994 202.234 151.832 203.671 151.832C203.98 151.832 204.284 151.889 204.558 151.992C205.555 152.347 206.27 153.309 206.27 154.437Z" fill="#FB0286"/>
<path opacity="0.1" d="M206.27 154.437C206.27 155.874 205.102 157.037 203.671 157.037C203.505 157.037 203.345 157.025 203.19 156.991C205.354 156.401 204.558 151.987 204.558 151.987C205.555 152.348 206.27 153.309 206.27 154.437Z" fill="#FF0000"/>
<path opacity="0.2" d="M202.698 153.79C202.486 154.34 202.045 154.684 201.707 154.558C201.37 154.432 201.266 153.876 201.478 153.327C201.69 152.777 202.131 152.434 202.469 152.559C202.807 152.685 202.91 153.235 202.698 153.79Z" fill="white"/>
<path opacity="0.2" d="M203.723 153.017C203.597 153.349 203.328 153.556 203.127 153.481C202.921 153.407 202.864 153.069 202.99 152.737C203.116 152.405 203.385 152.199 203.585 152.273C203.791 152.353 203.854 152.685 203.723 153.017Z" fill="white"/>
<path d="M148.248 154.517C148.248 155.955 147.08 157.117 145.649 157.117C145.483 157.117 145.323 157.105 145.168 157.071C143.96 156.848 143.044 155.788 143.044 154.517C143.044 153.075 144.212 151.912 145.649 151.912C145.958 151.912 146.262 151.97 146.536 152.073C147.538 152.428 148.248 153.39 148.248 154.517Z" fill="#FB0286"/>
<path opacity="0.1" d="M148.248 154.517C148.248 155.954 147.08 157.117 145.649 157.117C145.483 157.117 145.323 157.105 145.168 157.071C147.332 156.481 146.536 152.067 146.536 152.067C147.538 152.428 148.248 153.389 148.248 154.517Z" fill="#FF0000"/>
<path opacity="0.2" d="M144.681 153.871C144.469 154.42 144.029 154.764 143.691 154.638C143.353 154.512 143.25 153.956 143.462 153.407C143.674 152.857 144.114 152.514 144.452 152.64C144.784 152.766 144.887 153.315 144.681 153.871Z" fill="white"/>
<path opacity="0.2" d="M145.706 153.103C145.58 153.436 145.311 153.642 145.111 153.567C144.904 153.493 144.847 153.155 144.973 152.823C145.099 152.491 145.368 152.285 145.569 152.359C145.769 152.434 145.832 152.766 145.706 153.103Z" fill="white"/>
<path d="M118.888 153.35C121.003 153.35 122.718 152.788 122.718 152.096C122.718 151.403 121.003 150.842 118.888 150.842C116.773 150.842 115.058 151.403 115.058 152.096C115.058 152.788 116.773 153.35 118.888 153.35Z" fill="#F4F4F4"/>
<path d="M122.02 149.588C122.02 151.311 120.617 152.714 118.894 152.714C118.694 152.714 118.499 152.697 118.316 152.663C116.861 152.393 115.762 151.122 115.762 149.594C115.762 147.859 117.165 146.462 118.894 146.462C119.266 146.462 119.627 146.531 119.959 146.657C121.161 147.08 122.02 148.231 122.02 149.588Z" fill="#23ADC3"/>
<path opacity="0.1" d="M122.02 149.588C122.02 151.312 120.617 152.714 118.894 152.714C118.693 152.714 118.499 152.697 118.315 152.663C120.915 151.953 119.964 146.651 119.964 146.651C121.161 147.081 122.02 148.231 122.02 149.588Z" fill="#FF0000"/>
<path opacity="0.2" d="M117.732 148.81C117.48 149.474 116.947 149.886 116.541 149.731C116.134 149.577 116.014 148.918 116.26 148.254C116.512 147.59 117.044 147.178 117.451 147.333C117.857 147.487 117.983 148.146 117.732 148.81Z" fill="white"/>
<path opacity="0.2" d="M118.963 147.888C118.808 148.289 118.488 148.535 118.247 148.443C118.001 148.352 117.927 147.951 118.081 147.55C118.236 147.149 118.556 146.903 118.797 146.995C119.043 147.086 119.117 147.487 118.963 147.888Z" fill="white"/>
<path d="M126.829 144.784C126.829 145.311 125.524 145.74 123.909 145.74C122.295 145.74 120.989 145.311 120.989 144.784C120.989 144.257 122.295 143.828 123.909 143.828C125.518 143.828 126.829 144.252 126.829 144.784Z" fill="#F4F4F4"/>
<path d="M125.558 143.422C125.558 144.395 124.768 145.185 123.795 145.185C123.68 145.185 123.571 145.173 123.468 145.156C122.644 145.002 122.025 144.286 122.025 143.422C122.025 142.442 122.816 141.652 123.795 141.652C124.006 141.652 124.213 141.692 124.396 141.761C125.071 142.007 125.558 142.654 125.558 143.422Z" fill="#FBC20D"/>
<path opacity="0.1" d="M125.558 143.422C125.558 144.395 124.768 145.185 123.795 145.185C123.68 145.185 123.571 145.174 123.468 145.156C124.94 144.756 124.402 141.761 124.402 141.761C125.071 142.007 125.558 142.654 125.558 143.422Z" fill="#FF0000"/>
<path opacity="0.2" d="M123.13 142.981C122.986 143.353 122.689 143.588 122.46 143.502C122.231 143.416 122.162 143.044 122.305 142.666C122.448 142.294 122.746 142.059 122.975 142.145C123.204 142.237 123.273 142.609 123.13 142.981Z" fill="white"/>
<path opacity="0.2" d="M123.829 142.46C123.743 142.689 123.56 142.826 123.423 142.775C123.285 142.723 123.239 142.494 123.325 142.271C123.411 142.048 123.594 141.905 123.732 141.956C123.875 142.008 123.915 142.237 123.829 142.46Z" fill="white"/>
<path d="M175.599 162.487C177.715 162.487 179.43 161.926 179.43 161.233C179.43 160.541 177.715 159.979 175.599 159.979C173.484 159.979 171.769 160.541 171.769 161.233C171.769 161.926 173.484 162.487 175.599 162.487Z" fill="#F4F4F4"/>
<path d="M178.726 158.594C178.726 160.317 177.323 161.72 175.6 161.72C175.399 161.72 175.205 161.703 175.021 161.669C173.567 161.4 172.468 160.129 172.468 158.6C172.468 156.865 173.871 155.468 175.6 155.468C175.972 155.468 176.332 155.537 176.665 155.663C177.867 156.086 178.726 157.243 178.726 158.594Z" fill="#23ADC3"/>
<path opacity="0.1" d="M178.726 158.594C178.726 160.317 177.323 161.72 175.6 161.72C175.399 161.72 175.205 161.703 175.021 161.668C177.621 160.959 176.67 155.657 176.67 155.657C177.867 156.086 178.726 157.243 178.726 158.594Z" fill="#FF0000"/>
<path opacity="0.2" d="M174.438 157.815C174.186 158.479 173.653 158.892 173.247 158.737C172.84 158.583 172.72 157.924 172.966 157.26C173.218 156.596 173.751 156.184 174.157 156.338C174.564 156.493 174.69 157.157 174.438 157.815Z" fill="white"/>
<path opacity="0.2" d="M175.668 156.893C175.514 157.294 175.193 157.54 174.953 157.449C174.707 157.357 174.632 156.956 174.787 156.556C174.941 156.155 175.262 155.909 175.502 156C175.749 156.092 175.823 156.493 175.668 156.893Z" fill="white"/>
<path d="M230.672 153.853C230.672 154.615 228.789 155.233 226.459 155.233C224.134 155.233 222.245 154.615 222.245 153.853C222.245 153.092 224.128 152.473 226.459 152.473C228.789 152.468 230.672 153.086 230.672 153.853Z" fill="#F4F4F4"/>
<path d="M229.424 151.26C229.424 152.983 228.022 154.386 226.298 154.386C226.098 154.386 225.903 154.369 225.72 154.334C224.266 154.065 223.167 152.794 223.167 151.266C223.167 149.531 224.569 148.134 226.298 148.134C226.67 148.134 227.031 148.202 227.363 148.328C228.566 148.752 229.424 149.909 229.424 151.26Z" fill="#23ADC3"/>
<path opacity="0.1" d="M229.424 151.26C229.424 152.983 228.021 154.386 226.298 154.386C226.098 154.386 225.903 154.369 225.72 154.334C228.319 153.624 227.369 148.323 227.369 148.323C228.565 148.752 229.424 149.908 229.424 151.26Z" fill="#FF0000"/>
<path opacity="0.2" d="M225.13 150.481C224.878 151.145 224.346 151.557 223.939 151.403C223.533 151.248 223.412 150.59 223.659 149.926C223.91 149.262 224.443 148.849 224.849 149.004C225.256 149.158 225.382 149.823 225.13 150.481Z" fill="white"/>
<path opacity="0.2" d="M226.367 149.559C226.213 149.96 225.892 150.206 225.651 150.115C225.405 150.023 225.331 149.622 225.485 149.221C225.64 148.821 225.961 148.574 226.201 148.666C226.442 148.763 226.516 149.158 226.367 149.559Z" fill="white"/>
<path d="M190.148 117.142C190.148 117.903 188.264 118.522 185.934 118.522C183.603 118.522 181.72 117.903 181.72 117.142C181.72 116.38 183.603 115.762 185.934 115.762C188.264 115.762 190.148 116.38 190.148 117.142Z" fill="#F4F4F4"/>
<path d="M188.9 114.554C188.9 116.277 187.497 117.68 185.773 117.68C185.573 117.68 185.378 117.663 185.195 117.628C183.741 117.359 182.642 116.088 182.642 114.56C182.642 112.825 184.044 111.428 185.773 111.428C186.146 111.428 186.506 111.496 186.838 111.622C188.041 112.046 188.9 113.203 188.9 114.554Z" fill="#23ADC3"/>
<path opacity="0.1" d="M188.9 114.554C188.9 116.277 187.497 117.68 185.774 117.68C185.573 117.68 185.379 117.663 185.195 117.628C187.795 116.918 186.844 111.617 186.844 111.617C188.041 112.046 188.9 113.203 188.9 114.554Z" fill="#FF0000"/>
<path opacity="0.2" d="M184.606 113.775C184.354 114.439 183.821 114.852 183.415 114.697C183.008 114.542 182.882 113.884 183.134 113.22C183.386 112.556 183.919 112.144 184.325 112.298C184.737 112.453 184.858 113.111 184.606 113.775Z" fill="white"/>
<path opacity="0.2" d="M185.842 112.853C185.688 113.254 185.367 113.5 185.127 113.409C184.88 113.317 184.806 112.916 184.96 112.516C185.115 112.115 185.436 111.869 185.676 111.96C185.917 112.052 185.991 112.453 185.842 112.853Z" fill="white"/>
<path d="M139.392 114.468C139.392 115.023 138.023 115.47 136.334 115.47C134.645 115.47 133.277 115.023 133.277 114.468C133.277 113.913 134.645 113.466 136.334 113.466C138.023 113.466 139.392 113.913 139.392 114.468Z" fill="#F4F4F4"/>
<path d="M138.482 112.59C138.482 113.844 137.462 114.857 136.214 114.857C136.065 114.857 135.928 114.846 135.791 114.817C134.737 114.622 133.936 113.701 133.936 112.584C133.936 111.324 134.955 110.311 136.209 110.311C136.478 110.311 136.741 110.363 136.981 110.454C137.857 110.769 138.482 111.605 138.482 112.59Z" fill="#23ADC3"/>
<path opacity="0.1" d="M138.481 112.59C138.481 113.844 137.462 114.857 136.214 114.857C136.065 114.857 135.928 114.846 135.791 114.817C137.68 114.302 136.987 110.454 136.987 110.454C137.857 110.769 138.481 111.605 138.481 112.59Z" fill="#FF0000"/>
<path opacity="0.2" d="M135.367 112.023C135.183 112.504 134.8 112.802 134.502 112.693C134.21 112.584 134.118 112.103 134.302 111.617C134.485 111.136 134.868 110.838 135.166 110.947C135.458 111.061 135.544 111.542 135.367 112.023Z" fill="white"/>
<path opacity="0.2" d="M136.26 111.353C136.151 111.645 135.916 111.823 135.739 111.76C135.561 111.691 135.504 111.405 135.618 111.113C135.727 110.821 135.962 110.643 136.139 110.706C136.317 110.769 136.368 111.061 136.26 111.353Z" fill="white"/>
<path d="M158.904 108.473C160.551 108.473 161.887 108.035 161.887 107.494C161.887 106.954 160.551 106.515 158.904 106.515C157.256 106.515 155.921 106.954 155.921 107.494C155.921 108.035 157.256 108.473 158.904 108.473Z" fill="#F4F4F4"/>
<path d="M161 105.662C161 106.881 160.009 107.872 158.789 107.872C158.646 107.872 158.509 107.86 158.377 107.832C157.347 107.643 156.574 106.744 156.574 105.656C156.574 104.431 157.564 103.44 158.789 103.44C159.053 103.44 159.311 103.492 159.545 103.578C160.393 103.887 161 104.706 161 105.662Z" fill="#FB0286"/>
<path opacity="0.1" d="M160.999 105.662C160.999 106.882 160.009 107.872 158.789 107.872C158.646 107.872 158.509 107.861 158.377 107.832C160.215 107.328 159.545 103.578 159.545 103.578C160.392 103.887 160.999 104.706 160.999 105.662Z" fill="#FF0000"/>
<path opacity="0.2" d="M157.965 105.112C157.787 105.582 157.409 105.874 157.123 105.765C156.837 105.656 156.751 105.187 156.928 104.717C157.106 104.248 157.484 103.956 157.77 104.065C158.056 104.174 158.142 104.643 157.965 105.112Z" fill="white"/>
<path opacity="0.2" d="M158.836 104.46C158.727 104.74 158.504 104.918 158.326 104.855C158.154 104.792 158.097 104.505 158.206 104.225C158.315 103.944 158.538 103.767 158.715 103.83C158.887 103.893 158.944 104.173 158.836 104.46Z" fill="white"/>
<path d="M204.043 118.275C204.043 118.814 202.709 119.254 201.06 119.254C199.411 119.254 198.077 118.819 198.077 118.275C198.077 117.737 199.411 117.296 201.06 117.296C202.709 117.296 204.043 117.737 204.043 118.275Z" fill="#F4F4F4"/>
<path d="M203.156 116.443C203.156 117.663 202.165 118.653 200.946 118.653C200.803 118.653 200.665 118.642 200.533 118.613C199.503 118.424 198.73 117.525 198.73 116.437C198.73 115.212 199.72 114.222 200.946 114.222C201.209 114.222 201.467 114.273 201.701 114.359C202.549 114.674 203.156 115.487 203.156 116.443Z" fill="#FB0286"/>
<path opacity="0.1" d="M203.156 116.443C203.156 117.663 202.165 118.653 200.946 118.653C200.803 118.653 200.665 118.642 200.534 118.613C202.372 118.109 201.702 114.359 201.702 114.359C202.549 114.674 203.156 115.487 203.156 116.443Z" fill="#FF0000"/>
<path opacity="0.2" d="M200.121 115.893C199.944 116.363 199.566 116.655 199.28 116.546C198.993 116.437 198.907 115.968 199.085 115.498C199.262 115.029 199.64 114.737 199.927 114.846C200.213 114.96 200.299 115.424 200.121 115.893Z" fill="white"/>
<path opacity="0.2" d="M200.991 115.241C200.883 115.521 200.659 115.699 200.482 115.636C200.31 115.573 200.253 115.287 200.362 115.006C200.47 114.726 200.694 114.548 200.871 114.611C201.049 114.674 201.1 114.96 200.991 115.241Z" fill="white"/>
<path d="M182.321 105.456C183.484 105.456 184.428 105.146 184.428 104.763C184.428 104.381 183.484 104.071 182.321 104.071C181.157 104.071 180.214 104.381 180.214 104.763C180.214 105.146 181.157 105.456 182.321 105.456Z" fill="#F4F4F4"/>
<path d="M183.803 103.469C183.803 104.334 183.105 105.032 182.24 105.032C182.137 105.032 182.045 105.026 181.948 105.004C181.221 104.866 180.671 104.236 180.671 103.469C180.671 102.605 181.37 101.9 182.24 101.9C182.423 101.9 182.607 101.935 182.773 101.998C183.374 102.215 183.803 102.794 183.803 103.469Z" fill="#23ADC3"/>
<path opacity="0.1" d="M183.804 103.469C183.804 104.334 183.105 105.032 182.241 105.032C182.138 105.032 182.046 105.026 181.949 105.003C183.248 104.648 182.773 101.998 182.773 101.998C183.374 102.215 183.804 102.793 183.804 103.469Z" fill="#FF0000"/>
<path opacity="0.2" d="M181.657 103.08C181.531 103.412 181.267 103.618 181.061 103.538C180.855 103.458 180.798 103.131 180.924 102.799C181.05 102.467 181.313 102.261 181.519 102.341C181.72 102.416 181.783 102.748 181.657 103.08Z" fill="white"/>
<path opacity="0.2" d="M182.275 102.616C182.2 102.817 182.04 102.942 181.914 102.897C181.794 102.851 181.754 102.65 181.828 102.45C181.903 102.25 182.063 102.124 182.189 102.17C182.309 102.221 182.349 102.421 182.275 102.616Z" fill="white"/>
<path d="M225.789 145.471C225.789 146.049 224.352 146.525 222.583 146.525C220.814 146.525 219.377 146.055 219.377 145.471C219.377 144.893 220.814 144.418 222.583 144.418C224.358 144.418 225.789 144.887 225.789 145.471Z" fill="#F4F4F4"/>
<path d="M224.564 144.475C224.564 145.448 223.774 146.238 222.801 146.238C222.686 146.238 222.578 146.227 222.475 146.21C221.65 146.055 221.032 145.339 221.032 144.475C221.032 143.496 221.822 142.706 222.801 142.706C223.013 142.706 223.219 142.746 223.402 142.814C224.078 143.061 224.564 143.708 224.564 144.475Z" fill="#FBC20D"/>
<path opacity="0.1" d="M224.564 144.475C224.564 145.448 223.774 146.238 222.8 146.238C222.686 146.238 222.577 146.227 222.474 146.209C223.946 145.809 223.407 142.814 223.407 142.814C224.077 143.06 224.564 143.707 224.564 144.475Z" fill="#FF0000"/>
<path opacity="0.2" d="M222.136 144.034C221.993 144.406 221.696 144.641 221.467 144.555C221.238 144.469 221.169 144.097 221.312 143.719C221.455 143.347 221.753 143.112 221.982 143.198C222.211 143.29 222.28 143.662 222.136 144.034Z" fill="white"/>
<path opacity="0.2" d="M222.834 143.513C222.749 143.742 222.565 143.879 222.428 143.828C222.291 143.776 222.245 143.547 222.331 143.324C222.417 143.101 222.6 142.958 222.737 143.009C222.875 143.061 222.92 143.29 222.834 143.513Z" fill="white"/>
<path d="M212.683 112.641C212.683 113.219 211.246 113.695 209.477 113.695C207.708 113.695 206.271 113.225 206.271 112.641C206.271 112.057 207.708 111.588 209.477 111.588C211.252 111.588 212.683 112.057 212.683 112.641Z" fill="#F4F4F4"/>
<path d="M211.457 111.645C211.457 112.618 210.667 113.409 209.694 113.409C209.579 113.409 209.471 113.397 209.368 113.38C208.543 113.225 207.925 112.51 207.925 111.645C207.925 110.666 208.715 109.876 209.694 109.876C209.906 109.876 210.112 109.916 210.295 109.985C210.971 110.231 211.457 110.878 211.457 111.645Z" fill="#FBC20D"/>
<path opacity="0.1" d="M211.458 111.645C211.458 112.618 210.668 113.408 209.695 113.408C209.58 113.408 209.471 113.397 209.368 113.38C210.84 112.979 210.301 109.985 210.301 109.985C210.971 110.231 211.458 110.878 211.458 111.645Z" fill="#FF0000"/>
<path opacity="0.2" d="M209.03 111.204C208.887 111.576 208.59 111.811 208.361 111.725C208.132 111.639 208.063 111.267 208.206 110.889C208.349 110.517 208.647 110.282 208.876 110.368C209.105 110.454 209.174 110.832 209.03 111.204Z" fill="white"/>
<path opacity="0.2" d="M209.729 110.683C209.643 110.907 209.459 111.05 209.322 110.998C209.185 110.947 209.139 110.718 209.225 110.494C209.311 110.271 209.494 110.128 209.631 110.179C209.769 110.231 209.814 110.46 209.729 110.683Z" fill="white"/>
<path d="M154.249 119.048C156.529 119.048 158.377 118.443 158.377 117.697C158.377 116.951 156.529 116.346 154.249 116.346C151.969 116.346 150.121 116.951 150.121 117.697C150.121 118.443 151.969 119.048 154.249 119.048Z" fill="#F4F4F4"/>
<path d="M156.791 116.42C156.791 117.674 155.772 118.693 154.518 118.693C154.369 118.693 154.232 118.682 154.094 118.653C153.035 118.459 152.239 117.531 152.239 116.42C152.239 115.161 153.258 114.142 154.518 114.142C154.787 114.142 155.05 114.193 155.297 114.285C156.167 114.594 156.791 115.436 156.791 116.42Z" fill="#FBC20D"/>
<path opacity="0.1" d="M156.791 116.42C156.791 117.674 155.772 118.693 154.518 118.693C154.37 118.693 154.232 118.682 154.095 118.653C155.984 118.138 155.291 114.279 155.291 114.279C156.167 114.594 156.791 115.436 156.791 116.42Z" fill="#FF0000"/>
<path opacity="0.2" d="M153.671 115.854C153.488 116.334 153.099 116.638 152.807 116.523C152.515 116.409 152.423 115.928 152.606 115.447C152.79 114.966 153.179 114.663 153.471 114.777C153.763 114.892 153.854 115.373 153.671 115.854Z" fill="white"/>
<path opacity="0.2" d="M154.569 115.183C154.46 115.475 154.226 115.659 154.048 115.59C153.871 115.521 153.813 115.229 153.928 114.943C154.037 114.651 154.271 114.468 154.449 114.536C154.626 114.599 154.678 114.891 154.569 115.183Z" fill="white"/>
</g>
<g filter="url(#filter1_d)">
<path d="M53.8162 244.17C53.4962 244.17 53.2062 243.97 53.1162 243.65C46.7262 222.56 49.5262 199.68 52.9562 178.06L53.5762 174.18C56.8062 153.97 60.1462 133.06 56.3362 112.91C56.1162 111.75 55.8762 110.58 55.6262 109.41C54.5262 104.12 53.3762 98.6501 54.4062 93.2501C54.4862 92.8501 54.8662 92.5901 55.2662 92.6601C55.6662 92.7401 55.9262 93.12 55.8562 93.52C54.8862 98.63 55.9962 103.96 57.0762 109.11C57.3262 110.29 57.5662 111.46 57.7862 112.63C61.6462 133.04 58.2862 154.07 55.0362 174.41L54.4162 178.29C51.0162 199.74 48.2262 222.43 54.5362 243.22C54.6562 243.61 54.4362 244.02 54.0462 244.14C53.9562 244.16 53.8862 244.17 53.8162 244.17Z" fill="white"/>
<path d="M52.7967 87.6699L44.5767 104.43H61.0167L52.7967 87.6699Z" fill="#17A6FD"/>
<path d="M79.5864 56.58C78.9564 78.61 66.7664 88.06 58.2764 92.38C56.1364 93.47 54.2364 94.23 52.8064 94.79C47.8064 92.85 36.9364 88.36 30.6764 76.22C28.0564 71.14 26.2464 64.72 26.0164 56.58C25.4864 37.94 37.9064 31.9 46.0164 29.95C49.9064 29.01 52.7964 29.01 52.7964 29.01C52.7964 29.01 69.7464 29.01 76.6864 42.3C78.6064 45.96 79.7564 50.62 79.5864 56.58Z" fill="#17A6FD"/>
<path d="M72.8863 56.58C73.5063 35.01 56.7663 30.32 49.4463 29.29C51.4863 29 52.7963 29 52.7963 29C52.7963 29 80.3663 29 79.5863 56.57C78.7963 84.15 59.8863 92.03 52.7963 94.79C51.8663 94.43 50.7263 93.97 49.4463 93.4C57.8563 89.62 72.2063 80.52 72.8863 56.58Z" fill="#0A9CE5"/>
<path d="M52.5664 59.75C47.8964 70.32 38.7664 76.9 30.6764 76.22C28.0564 71.14 26.2464 64.72 26.0164 56.58C25.4864 37.94 37.9064 31.9 46.0164 29.95C46.1464 30 46.2664 30.06 46.3964 30.11C55.2964 34.04 58.0564 47.2999 52.5664 59.75Z" fill="#2EB9FF"/>
<path opacity="0.2" d="M30.0366 53.62C30.0366 53.62 36.2766 54.56 38.9966 58.46C38.9966 58.46 44.4566 44.6 54.3866 37.85L51.1366 32.4C51.1366 32.39 37.9866 33.5 30.0366 53.62Z" fill="#FFEAFE"/>
</g>
<g filter="url(#filter2_d)">
<path d="M321.806 58.6699L313.586 75.4299H330.026L321.806 58.6699Z" fill="#FF2D86"/>
<path d="M348.596 27.58C347.966 49.61 335.776 59.06 327.286 63.38C325.146 64.47 323.246 65.23 321.816 65.79C316.816 63.85 305.946 59.36 299.686 47.22C297.066 42.14 295.256 35.72 295.026 27.58C294.496 8.94001 306.916 2.9 315.026 0.950005C318.916 0.0100046 321.806 0.0100098 321.806 0.0100098C321.806 0.0100098 338.756 0.0100107 345.696 13.3C347.606 16.96 348.766 21.62 348.596 27.58Z" fill="#FF2D86"/>
<path d="M341.897 27.58C342.517 6.01 325.777 1.32 318.457 0.290001C320.497 9.23872e-07 321.807 0 321.807 0C321.807 0 349.377 0 348.597 27.57C347.807 55.14 328.897 63.02 321.807 65.78C320.877 65.42 319.737 64.96 318.457 64.39C326.867 60.62 341.217 51.52 341.897 27.58Z" fill="#ED1D8A"/>
<path d="M321.566 30.75C316.896 41.32 307.776 47.9 299.676 47.22C297.056 42.14 295.246 35.72 295.016 27.58C294.486 8.93996 306.906 2.89995 315.016 0.949951C315.146 0.999951 315.266 1.05995 315.396 1.10995C324.306 5.03996 327.066 18.3 321.566 30.75Z" fill="#FF48A0"/>
<path opacity="0.2" d="M298.296 20.98C298.296 20.98 303.146 21.71 305.246 24.74C305.246 24.74 309.486 13.98 317.196 8.74001L314.676 4.51001C314.676 4.51001 304.466 5.37 298.296 20.98Z" fill="#FFEAFE"/>
<path d="M322.536 69.2399C320.416 69.2399 318.286 68.9399 316.236 68.3299C315.846 68.2099 315.626 67.7999 315.736 67.4199C315.856 67.0299 316.266 66.8099 316.656 66.9199C320.236 67.9799 324.036 68.0499 327.656 67.1299C328.056 67.0299 328.446 67.2699 328.556 67.6599C328.656 68.0499 328.416 68.4499 328.026 68.5599C326.216 69.0099 324.376 69.2399 322.536 69.2399Z" fill="white"/>
<path d="M320.276 73.4698C318.096 73.4698 315.926 73.2298 313.786 72.7598C313.386 72.6698 313.136 72.2798 313.226 71.8798C313.316 71.4798 313.706 71.2298 314.106 71.3198C318.956 72.3898 324.026 72.1798 328.776 70.6998C329.166 70.5798 329.576 70.7998 329.696 71.1798C329.816 71.5698 329.596 71.9798 329.216 72.0998C326.306 73.0198 323.296 73.4698 320.276 73.4698Z" fill="white"/>
<path d="M323.436 219.3C323.116 219.3 322.826 219.1 322.736 218.78C316.346 197.69 319.146 174.81 322.576 153.19L323.196 149.31C326.426 129.1 329.766 108.19 325.956 88.0399C325.736 86.8799 325.496 85.7099 325.246 84.5399C324.146 79.2499 322.996 73.7799 324.026 68.3799C324.106 67.9799 324.486 67.7199 324.886 67.7899C325.286 67.8699 325.546 68.2499 325.476 68.6499C324.506 73.7599 325.616 79.09 326.696 84.24C326.946 85.42 327.186 86.5899 327.406 87.7599C331.266 108.17 327.906 129.2 324.656 149.54L324.036 153.42C320.636 174.87 317.846 197.56 324.156 218.35C324.276 218.74 324.056 219.15 323.666 219.27C323.576 219.29 323.506 219.3 323.436 219.3Z" fill="white"/>
</g>
<g filter="url(#filter3_d)">
<path d="M299.806 78.6699L291.586 95.4199H308.026L299.806 78.6699Z" fill="#17A6FD"/>
<path d="M326.586 47.58C325.956 69.61 313.766 79.06 305.276 83.38C303.136 84.47 301.236 85.23 299.806 85.79C294.806 83.85 283.936 79.36 277.676 67.22C275.056 62.14 273.246 55.72 273.016 47.58C272.486 28.94 284.906 22.9 293.016 20.95C296.906 20.01 299.796 20.01 299.796 20.01C299.796 20.01 316.746 20.01 323.686 33.3C325.606 36.95 326.756 41.62 326.586 47.58Z" fill="#17A6FD"/>
<path d="M319.897 47.58C320.517 26.01 303.777 21.32 296.457 20.29C298.497 20 299.807 20 299.807 20C299.807 20 327.377 20 326.597 47.57C325.807 75.14 306.897 83.02 299.807 85.78C298.877 85.42 297.737 84.96 296.457 84.39C304.867 80.61 319.207 71.52 319.897 47.58Z" fill="#0A9CE5"/>
<path d="M299.566 50.7399C294.896 61.3099 285.776 67.8899 277.676 67.2099C275.056 62.1299 273.246 55.7099 273.016 47.5699C272.486 28.9299 284.906 22.8899 293.016 20.9399C293.146 20.9899 293.266 21.0499 293.396 21.0999C302.296 25.0299 305.056 38.2999 299.566 50.7399Z" fill="#2EB9FF"/>
<path opacity="0.2" d="M277.037 44.61C277.037 44.61 283.287 45.55 285.997 49.45C285.997 49.45 291.457 35.59 301.387 28.84L298.137 23.39C298.137 23.38 284.997 24.5 277.037 44.61Z" fill="#FFEAFE"/>
<path d="M300.866 88.6598C298.746 88.6598 296.616 88.3598 294.566 87.7498C294.176 87.6298 293.956 87.2198 294.066 86.8398C294.186 86.4498 294.596 86.2298 294.986 86.3398C298.566 87.3998 302.366 87.4698 305.986 86.5498C306.376 86.4498 306.786 86.6898 306.886 87.0798C306.986 87.4698 306.746 87.8698 306.356 87.9798C304.546 88.4398 302.706 88.6598 300.866 88.6598Z" fill="white"/>
<path d="M298.606 92.89C296.426 92.89 294.256 92.65 292.116 92.18C291.716 92.09 291.466 91.7 291.556 91.3C291.646 90.9 292.036 90.65 292.436 90.74C297.286 91.81 302.356 91.6 307.106 90.12C307.496 90 307.906 90.22 308.026 90.6C308.146 90.99 307.926 91.4 307.546 91.52C304.646 92.44 301.626 92.89 298.606 92.89Z" fill="white"/>
<path d="M301.766 238.72C301.446 238.72 301.156 238.52 301.066 238.2C294.676 217.11 297.476 194.23 300.906 172.61L301.526 168.73C304.756 148.52 308.096 127.61 304.286 107.46C304.066 106.3 303.826 105.13 303.576 103.96C302.476 98.6699 301.336 93.1999 302.356 87.7999C302.436 87.3999 302.816 87.1399 303.216 87.2099C303.616 87.2899 303.876 87.6699 303.806 88.0699C302.836 93.1799 303.946 98.5099 305.026 103.65C305.276 104.83 305.516 106 305.736 107.18C309.596 127.59 306.236 148.62 302.986 168.96L302.366 172.84C298.966 194.29 296.176 216.98 302.486 237.77C302.606 238.16 302.386 238.57 301.996 238.69C301.916 238.71 301.836 238.72 301.766 238.72Z" fill="white"/>
</g>
<g filter="url(#filter4_d)">
<path d="M30.8064 74.6699L22.5864 91.4199H39.0264L30.8064 74.6699Z" fill="#FF2D86"/>
<path d="M57.5962 43.58C56.9662 65.61 44.7762 75.06 36.2862 79.38C34.1462 80.47 32.2462 81.23 30.8162 81.79C25.8162 79.85 14.9462 75.36 8.68618 63.22C6.06618 58.14 4.25618 51.72 4.02618 43.58C3.49619 24.94 15.9162 18.9 24.0262 16.95C27.9162 16.01 30.8062 16.01 30.8062 16.01C30.8062 16.01 47.7562 16.01 54.6962 29.3C56.6062 32.95 57.7562 37.62 57.5962 43.58Z" fill="#FF2D86"/>
<path d="M50.8965 43.58C51.5165 22.01 34.7765 17.32 27.4565 16.29C29.4965 16 30.8065 16 30.8065 16C30.8065 16 58.3765 16 57.5965 43.57C56.8165 71.14 37.8965 79.02 30.8065 81.78C29.8765 81.42 28.7365 80.96 27.4565 80.39C35.8665 76.61 50.2065 67.52 50.8965 43.58Z" fill="#ED1D8A"/>
<path d="M30.5664 46.7399C25.8964 57.3099 16.7764 63.8899 8.67642 63.2099C6.05642 58.1299 4.24642 51.7099 4.01642 43.5699C3.48642 24.9299 15.9064 18.8899 24.0164 16.9399C24.1464 16.9899 24.2664 17.0499 24.3964 17.0999C33.2964 21.0299 36.0564 34.2999 30.5664 46.7399Z" fill="#FF48A0"/>
<path opacity="0.2" d="M7.29639 36.9801C7.29639 36.9801 12.1464 37.7101 14.2464 40.7401C14.2464 40.7401 18.4864 29.9801 26.1964 24.7401L23.6764 20.5101C23.6764 20.5001 13.4664 21.3701 7.29639 36.9801Z" fill="#FFEAFE"/>
<path d="M31.8766 84.7802C29.7566 84.7802 27.6266 84.4802 25.5766 83.8702C25.1866 83.7502 24.9666 83.3402 25.0766 82.9502C25.1966 82.5602 25.6066 82.3402 25.9966 82.4502C29.5766 83.5102 33.3766 83.5802 36.9966 82.6602C37.3866 82.5602 37.7866 82.8002 37.8966 83.1902C37.9966 83.5802 37.7566 83.9802 37.3666 84.0902C35.5566 84.5502 33.7166 84.7802 31.8766 84.7802Z" fill="white"/>
<path d="M29.6167 89.0101C27.4367 89.0101 25.2667 88.7701 23.1267 88.3001C22.7267 88.2101 22.4767 87.8201 22.5667 87.4201C22.6567 87.0201 23.0467 86.7701 23.4467 86.8601C28.2967 87.9301 33.3667 87.7201 38.1167 86.2401C38.5067 86.1201 38.9167 86.3401 39.0367 86.7201C39.1567 87.1101 38.9367 87.5201 38.5567 87.6401C35.6467 88.5501 32.6267 89.0101 29.6167 89.0101Z" fill="white"/>
<path d="M32.7766 234.84C32.4566 234.84 32.1666 234.64 32.0766 234.32C25.6866 213.23 28.4866 190.35 31.9166 168.73L32.5366 164.85C35.7666 144.64 39.1067 123.73 35.2967 103.58C35.0767 102.42 34.8366 101.25 34.5866 100.08C33.4866 94.7902 32.3466 89.3202 33.3666 83.9202C33.4466 83.5202 33.8266 83.2502 34.2266 83.3302C34.6266 83.4102 34.8866 83.7902 34.8166 84.1902C33.8466 89.3002 34.9566 94.6302 36.0366 99.7702C36.2866 100.95 36.5266 102.12 36.7466 103.3C40.6066 123.71 37.2466 144.74 33.9966 165.08L33.3767 168.96C29.9767 190.41 27.1866 213.1 33.4966 233.89C33.6166 234.28 33.3966 234.69 33.0066 234.81C32.9166 234.83 32.8466 234.84 32.7766 234.84Z" fill="white"/>
</g>
<defs>
<filter id="filter0_d" x="61" y="68" width="226.747" height="169" filterUnits="userSpaceOnUse" color-interpolation-filters="sRGB">
<feFlood flood-opacity="0" result="BackgroundImageFix"/>
<feColorMatrix in="SourceAlpha" type="matrix" values="0 0 0 0 0 0 0 0 0 0 0 0 0 0 0 0 0 0 127 0"/>
<feOffset dy="4"/>
<feGaussianBlur stdDeviation="2"/>
<feColorMatrix type="matrix" values="0 0 0 0 0 0 0 0 0 0 0 0 0 0 0 0 0 0 0.25 0"/>
<feBlend mode="normal" in2="BackgroundImageFix" result="effect1_dropShadow"/>
<feBlend mode="normal" in="SourceGraphic" in2="effect1_dropShadow" result="shape"/>
</filter>
<filter id="filter1_d" x="22" y="29" width="61.603" height="223.17" filterUnits="userSpaceOnUse" color-interpolation-filters="sRGB">
<feFlood flood-opacity="0" result="BackgroundImageFix"/>
<feColorMatrix in="SourceAlpha" type="matrix" values="0 0 0 0 0 0 0 0 0 0 0 0 0 0 0 0 0 0 127 0"/>
<feOffset dy="4"/>
<feGaussianBlur stdDeviation="2"/>
<feColorMatrix type="matrix" values="0 0 0 0 0 0 0 0 0 0 0 0 0 0 0 0 0 0 0.25 0"/>
<feBlend mode="normal" in2="BackgroundImageFix" result="effect1_dropShadow"/>
<feBlend mode="normal" in="SourceGraphic" in2="effect1_dropShadow" result="shape"/>
</filter>
<filter id="filter2_d" x="291" y="0" width="61.6128" height="227.3" filterUnits="userSpaceOnUse" color-interpolation-filters="sRGB">
<feFlood flood-opacity="0" result="BackgroundImageFix"/>
<feColorMatrix in="SourceAlpha" type="matrix" values="0 0 0 0 0 0 0 0 0 0 0 0 0 0 0 0 0 0 127 0"/>
<feOffset dy="4"/>
<feGaussianBlur stdDeviation="2"/>
<feColorMatrix type="matrix" values="0 0 0 0 0 0 0 0 0 0 0 0 0 0 0 0 0 0 0.25 0"/>
<feBlend mode="normal" in2="BackgroundImageFix" result="effect1_dropShadow"/>
<feBlend mode="normal" in="SourceGraphic" in2="effect1_dropShadow" result="shape"/>
</filter>
<filter id="filter3_d" x="269" y="20" width="61.6128" height="226.72" filterUnits="userSpaceOnUse" color-interpolation-filters="sRGB">
<feFlood flood-opacity="0" result="BackgroundImageFix"/>
<feColorMatrix in="SourceAlpha" type="matrix" values="0 0 0 0 0 0 0 0 0 0 0 0 0 0 0 0 0 0 127 0"/>
<feOffset dy="4"/>
<feGaussianBlur stdDeviation="2"/>
<feColorMatrix type="matrix" values="0 0 0 0 0 0 0 0 0 0 0 0 0 0 0 0 0 0 0.25 0"/>
<feBlend mode="normal" in2="BackgroundImageFix" result="effect1_dropShadow"/>
<feBlend mode="normal" in="SourceGraphic" in2="effect1_dropShadow" result="shape"/>
</filter>
<filter id="filter4_d" x="0" y="16" width="61.6128" height="226.84" filterUnits="userSpaceOnUse" color-interpolation-filters="sRGB">
<feFlood flood-opacity="0" result="BackgroundImageFix"/>
<feColorMatrix in="SourceAlpha" type="matrix" values="0 0 0 0 0 0 0 0 0 0 0 0 0 0 0 0 0 0 127 0"/>
<feOffset dy="4"/>
<feGaussianBlur stdDeviation="2"/>
<feColorMatrix type="matrix" values="0 0 0 0 0 0 0 0 0 0 0 0 0 0 0 0 0 0 0.25 0"/>
<feBlend mode="normal" in2="BackgroundImageFix" result="effect1_dropShadow"/>
<feBlend mode="normal" in="SourceGraphic" in2="effect1_dropShadow" result="shape"/>
</filter>
</defs>
</svg>
