<svg width="26" height="32" viewBox="0 0 26 32" fill="none" xmlns="http://www.w3.org/2000/svg">
<path d="M15.8334 1.83333H4.50002C3.74857 1.83333 3.0279 2.13184 2.49655 2.66319C1.9652 3.19455 1.66669 3.91521 1.66669 4.66666V27.3333C1.66669 28.0848 1.9652 28.8054 2.49655 29.3368C3.0279 29.8682 3.74857 30.1667 4.50002 30.1667H21.5C22.2515 30.1667 22.9721 29.8682 23.5035 29.3368C24.0348 28.8054 24.3334 28.0848 24.3334 27.3333V10.3333L15.8334 1.83333Z" stroke="#00A0D7" stroke-width="3" stroke-linecap="round" stroke-linejoin="round"/>
<path d="M15.8333 1.83333V10.3333H24.3333" stroke="#00A0D7" stroke-width="3" stroke-linecap="round" stroke-linejoin="round"/>
<path d="M18.6666 17.4167H7.33331" stroke="#00A0D7" stroke-width="3" stroke-linecap="round" stroke-linejoin="round"/>
<path d="M18.6666 23.0833H7.33331" stroke="#00A0D7" stroke-width="3" stroke-linecap="round" stroke-linejoin="round"/>
<path d="M10.1666 11.75H8.74998H7.33331" stroke="#00A0D7" stroke-width="3" stroke-linecap="round" stroke-linejoin="round"/>
</svg>
