<svg width="457" height="456" viewBox="0 0 457 456" fill="none" xmlns="http://www.w3.org/2000/svg">
<path d="M226.81 0.00976562C101.47 0.469766 0 102.21 0 227.66C0 228.23 0.02 228.8 0.02 229.37H226.81V0.00976562Z" fill="#FFF4BB"/>
<path d="M455.3 229.37C455.3 228.8 455.32 228.23 455.32 227.66C455.33 101.93 353.4 0 227.66 0C227.37 0 227.09 0.01 226.8 0.01V229.37H455.3Z" fill="#E9F7FF"/>
<path d="M0.0195312 229.37C0.939531 354.03 102.04 454.85 226.81 455.31V229.37H0.0195312Z" fill="#FFE1E1"/>
<path d="M226.81 229.37V455.31C227.1 455.31 227.38 455.32 227.67 455.32C352.83 455.32 454.39 354.31 455.31 229.37H226.81Z" fill="#E3FFDC"/>
<path d="M320.03 130.88C320.03 130.88 322.62 141.41 338.98 140.44C355.34 139.47 373.15 134.93 385.14 144.65C397.12 154.37 398.26 170.89 398.26 170.89L415.43 166.84C415.43 166.84 411.38 150.97 408.3 145.95C405.22 140.93 395.99 123.11 378.82 122.14C362.41 121.21 349.84 119.99 341.84 121.3C341.47 121.36 341.11 121.43 340.76 121.5C332.83 123.11 320.03 130.88 320.03 130.88Z" fill="#FFDB09"/>
<path d="M343.911 151.18H339.771V181.5H343.911V151.18Z" fill="#002467"/>
<path d="M365.7 181.17H317.98V183.49H365.7V181.17Z" fill="#002467"/>
<path d="M329.31 186.88C329.31 188.92 327.65 190.58 325.61 190.58C323.57 190.58 321.91 188.92 321.91 186.88C321.91 184.84 323.57 183.18 325.61 183.18C327.65 183.18 329.31 184.84 329.31 186.88Z" fill="#FFDB09"/>
<path d="M345.531 186.88C345.531 188.92 343.871 190.58 341.831 190.58C339.791 190.58 338.131 188.92 338.131 186.88C338.131 184.84 339.791 183.18 341.831 183.18C343.871 183.18 345.531 184.84 345.531 186.88Z" fill="#FFDB09"/>
<path d="M361.751 186.88C361.751 188.92 360.091 190.58 358.051 190.58C356.011 190.58 354.351 188.92 354.351 186.88C354.351 184.84 356.011 183.18 358.051 183.18C360.101 183.18 361.751 184.84 361.751 186.88Z" fill="#FFDB09"/>
<path d="M360.76 137.85H325.87L314.99 84.7701C313.99 79.8901 309.23 76.7501 304.35 77.7501C299.47 78.7501 296.33 83.5101 297.33 88.3901L309.01 145.38C309.86 149.51 313.4 152.38 317.43 152.56C318.26 152.95 319.18 153.17 320.16 153.17H360.76C364.32 153.17 367.2 150.29 367.2 146.73V144.28C367.2 140.73 364.32 137.85 360.76 137.85Z" fill="#FFDB09"/>
<path d="M403.6 119.52C400.44 117.84 396.88 116.7 392.88 116.47C376.47 115.54 363.9 114.32 355.9 115.63C355.53 115.69 355.17 115.76 354.82 115.83C346.88 117.45 334.09 125.22 334.09 125.22C334.09 125.22 336.68 135.75 353.04 134.78C366.21 134 380.31 130.91 391.57 134.8L413.44 167.73L422.43 163.88L403.6 119.52Z" fill="#2D2425"/>
<path d="M422.42 163.88L425.68 171.38L418.99 174.89L413.43 167.73L422.42 163.88Z" fill="#EA937F"/>
<path d="M419.04 174.87L425.68 171.39L439.44 173.01C439.44 173.01 441.4 173.15 441.33 174.32L440.68 175.41L421.03 178.89L419.04 174.87Z" fill="#59A8EF"/>
<path d="M332.33 93.8702L344.27 85.9102C344.27 85.9102 351.02 96.8802 366.45 97.1202C381.88 97.3602 389.84 95.9102 389.84 95.9102C389.84 95.9102 399.97 94.2202 401.17 100.25C401.17 100.25 386.82 102.06 384.53 102.18C382.24 102.3 375.25 102.3 368.86 105.44C362.47 108.57 339.68 107.01 332.33 93.8702Z" fill="#EA937F"/>
<path d="M338.29 76.2302C335.2 72.8202 329.93 72.5702 326.52 75.6602C323.11 78.7502 322.86 84.0202 325.95 87.4302C326.16 87.6602 326.39 87.8802 326.62 88.0802L334.05 96.2702L346.3 85.1502L338.91 77.0102C338.72 76.7502 338.52 76.4802 338.29 76.2302Z" fill="#59A8EF"/>
<path d="M312.72 76.7801C312.72 76.7801 323.32 68.2201 335.29 74.8601C335.29 74.8601 340.45 80.7101 342.63 94.9601C342.63 94.9601 356.16 113.35 353.29 118.38C352.94 118.99 319.74 132.45 319.74 132.45C319.74 132.45 311 115.06 310.39 103.09C310.39 103.08 305.44 82.1901 312.72 76.7801Z" fill="#6FB2FD"/>
<path d="M317.04 98.3301L328.98 90.3701C328.98 90.3701 335.73 101.34 351.16 101.58C366.59 101.82 374.55 100.37 374.55 100.37C374.55 100.37 384.68 98.6801 385.88 104.71C385.88 104.71 371.53 106.52 369.24 106.64C366.95 106.76 359.96 106.76 353.57 109.9C347.18 113.04 324.39 111.47 317.04 98.3301Z" fill="#FFB29D"/>
<path d="M323.88 80.6401C321.32 76.8201 316.14 75.7901 312.32 78.3501C308.5 80.9101 307.47 86.0901 310.03 89.9101C310.21 90.1701 310.39 90.4201 310.59 90.6501L316.74 99.8401L330.49 90.6401L324.38 81.5101C324.23 81.2101 324.07 80.9201 323.88 80.6401Z" fill="#7DBEF9"/>
<path d="M385.32 104.78H362.78V106.58H385.32V104.78Z" fill="#AFCFE2"/>
<path d="M417.49 106.51H381.57L387.39 78.3599H423.32L417.49 106.51Z" fill="#D4EEFF"/>
<path d="M408.38 92.1899C408.38 93.8399 406.31 95.1899 403.77 95.1899C401.22 95.1899 399.16 93.8499 399.16 92.1899C399.16 90.5399 401.23 89.1899 403.77 89.1899C406.32 89.1999 408.38 90.5399 408.38 92.1899Z" fill="#FFDB09"/>
<path d="M408.39 32.23H374.27C370.92 32.23 368.2 34.95 368.2 38.3V51.37C368.2 54.72 370.92 57.44 374.27 57.44H383.19C384.61 61.51 390.52 64.91 390.52 64.91C388.56 63.57 388.51 59.46 388.62 57.44H408.38C411.73 57.44 414.45 54.72 414.45 51.37V38.3C414.46 34.95 411.74 32.23 408.39 32.23Z" fill="#FFF0A4"/>
<path d="M409.08 37.5298H373.69V38.7198H409.08V37.5298Z" fill="#F4BB56"/>
<path d="M409.08 41.8496H373.69V43.0396H409.08V41.8496Z" fill="#F4BB56"/>
<path d="M409.08 46.1797H373.69V47.3697H409.08V46.1797Z" fill="#F4BB56"/>
<path d="M396.86 50.5098H373.69V51.6998H396.86V50.5098Z" fill="#F4BB56"/>
<path d="M322.46 68.3799L320.55 73.5199L325.89 75.6399L328.71 69.9899L322.46 68.3799Z" fill="#FFB29D"/>
<path d="M340.14 57.2702C339.91 65.5202 335.34 72.0802 328.53 72.0802C321.72 72.0802 316.2 65.3902 316.2 57.1302C316.2 48.8702 321.72 42.1802 328.53 42.1802C335.34 42.1802 340.58 41.5502 340.14 57.2702Z" fill="#FFB29D"/>
<path d="M317.84 54.0502C317.59 54.0102 317.33 53.9702 317.07 53.9702C314.52 53.9702 312.45 56.0402 312.45 58.5902C312.45 61.1402 314.52 63.2102 317.07 63.2102C317.33 63.2102 317.59 63.1702 317.84 63.1302V54.0502Z" fill="#FFB29D"/>
<path d="M336.23 54.0502C336.48 54.0102 336.74 53.9702 337 53.9702C339.55 53.9702 341.62 56.0402 341.62 58.5902C341.62 61.1402 339.55 63.2102 337 63.2102C336.74 63.2102 336.48 63.1702 336.23 63.1302V54.0502Z" fill="#FFB29D"/>
<path d="M316.76 58.4501C316.76 58.4501 321.25 50.0501 323.86 48.7501C323.86 48.7501 333.74 54.3301 331.31 49.2201C331.31 49.2201 340.75 53.4401 336.87 48.3901C336.87 48.3901 350.34 47.9701 340.54 46.6201C340.54 46.6201 351.53 41.1401 345.25 39.0201C345.25 39.0201 341.49 38.2201 336.99 41.5301C336.99 41.5301 340.43 33.2401 332.26 38.6901L329.05 40.3701C329.05 40.3701 325.04 39.5201 319.6 44.6101C319.6 44.6101 312.74 47.2101 314.63 54.5401C314.63 54.5401 316.88 54.4201 316.76 58.4501Z" fill="#C15855"/>
<path d="M339.93 56.65L340.64 47.43L337.86 47C337.86 47 340.64 53.72 339.93 56.65Z" fill="#C15855"/>
<path d="M321.96 55.6305C321.96 55.6305 325.97 54.3205 328.98 54.5505C328.98 54.5505 325.27 51.8505 321.96 55.6305Z" fill="#C15855"/>
<path d="M334.54 54.4702C334.32 54.7002 337.7 53.9302 338.94 54.8602C338.94 54.8602 336.86 52.0802 334.54 54.4702Z" fill="#C15855"/>
<path d="M327.51 58.5301C327.51 59.3001 326.89 59.9201 326.12 59.9201C325.35 59.9201 324.73 59.3001 324.73 58.5301C324.73 57.7601 325.35 57.1401 326.12 57.1401C326.89 57.1401 327.51 57.7701 327.51 58.5301Z" fill="#C15855"/>
<path d="M338.09 58.3301C338.09 59.0101 337.54 59.5601 336.86 59.5601C336.18 59.5601 335.63 59.0101 335.63 58.3301C335.63 57.6501 336.18 57.1001 336.86 57.1001C337.54 57.1001 338.09 57.6501 338.09 58.3301Z" fill="#C15855"/>
<path d="M339.26 61.71C339.26 61.71 331.96 58.84 321.55 61.13L316.7 56.77L316.71 58.29L321.17 61.99C321.01 62.67 320.8 63.72 320.72 64.88L317.55 64.05L317.94 65.15L320.69 65.92C320.7 67.26 320.93 68.65 321.62 69.77C321.62 69.77 325.77 73.3 330.87 71.96C330.87 71.96 335.41 71.41 337.45 67.34C337.46 67.35 339.57 64.14 339.26 61.71Z" fill="#D4EEFF"/>
<path d="M283.22 152.23C283.22 152.23 285.51 143.5 290.91 138.1C296.31 132.7 294.86 119.19 291.95 115.04C289.04 110.88 278.03 105.27 280.73 100.08C283.43 94.8902 289.46 83.4602 288 72.6502C286.55 61.8502 279.48 52.2902 269.92 54.3702C260.36 56.4502 249.35 69.5402 260.99 82.0002C260.99 82.0002 267.64 92.6002 263.69 98.0002C259.74 103.4 251.85 121.06 263.69 130.62C275.53 140.18 274.49 150.36 273.04 153.68L282.6 154.3L283.22 152.23Z" fill="#8BBA70"/>
<path d="M280.49 53.8101C280.49 53.8101 281.5 88.3701 274.43 96.8601C267.36 105.35 270.39 108.79 278.67 116.67C286.96 124.55 281.5 149.82 278.87 152.24C276.24 154.67 281.09 156.48 281.09 156.48L291.6 153.65L296.05 141.93L298.27 129.8C298.27 129.8 295.84 116.66 295.44 115.45C295.04 114.24 291.2 94.2301 291.2 94.2301L300.3 75.2301L294.84 59.2601" fill="#408243"/>
<path d="M291.731 189.35H265.891L263.021 157.65H294.601L291.731 189.35Z" fill="#AA4848"/>
<path d="M295.73 159.22H261.9L260.11 149.46H297.51L295.73 159.22Z" fill="#C15855"/>
<path d="M389.54 125.18C386.38 123.5 382.82 122.36 378.82 122.13C362.41 121.2 349.84 119.98 341.84 121.29C341.47 121.35 341.11 121.42 340.76 121.49C332.82 123.11 320.03 130.88 320.03 130.88C320.03 130.88 322.62 141.41 338.98 140.44C352.15 139.66 366.25 136.57 377.51 140.46L399.38 173.39L408.37 169.54L389.54 125.18Z" fill="#483C3D"/>
<path d="M408.36 169.54L411.62 177.04L404.93 180.55L399.37 173.39L408.36 169.54Z" fill="#FFB29D"/>
<path d="M404.98 180.53L411.62 177.05L425.38 178.67C425.38 178.67 427.34 178.82 427.27 179.98L426.62 181.07L406.97 184.55L404.98 180.53Z" fill="#6FB2FD"/>
<path d="M450.76 106.63H354.66V111.99H450.76V106.63Z" fill="#C15855"/>
<path d="M441.42 110.09C441.42 110.09 434.5 110.76 434.94 110.76L448.56 190.04H451.46L441.42 110.09Z" fill="#C15855"/>
<path d="M369.26 110.09C369.26 110.09 376.18 110.76 375.74 110.76L362.12 190.04H359.22L369.26 110.09Z" fill="#C15855"/>
<path d="M120.14 157.64H92.4705C85.0205 157.64 78.9805 151.6 78.9805 144.15V95.7698C78.9805 88.3198 85.0205 82.2798 92.4705 82.2798H120.14C127.59 82.2798 133.63 88.3198 133.63 95.7698V144.14C133.64 151.6 127.59 157.64 120.14 157.64Z" fill="#DD9852"/>
<path d="M129.261 158.2H83.3607C81.0907 158.2 79.2607 156.36 79.2607 154.1V145.74C79.2607 143.47 81.1007 141.64 83.3607 141.64H129.261C131.531 141.64 133.361 143.48 133.361 145.74V154.1C133.361 156.36 131.521 158.2 129.261 158.2Z" fill="#C6864B"/>
<path d="M92.8504 196.72C92.8504 198.98 91.0204 200.8 88.7704 200.8C86.5104 200.8 84.6904 198.97 84.6904 196.72C84.6904 194.46 86.5204 192.64 88.7704 192.64C91.0204 192.64 92.8504 194.46 92.8504 196.72Z" fill="#AA4848"/>
<path d="M110.62 196.72C110.62 198.98 108.79 200.8 106.54 200.8C104.28 200.8 102.46 198.97 102.46 196.72C102.46 194.46 104.29 192.64 106.54 192.64C108.79 192.64 110.62 194.46 110.62 196.72Z" fill="#AA4848"/>
<path d="M128.381 196.72C128.381 198.98 126.551 200.8 124.301 200.8C122.041 200.8 120.221 198.97 120.221 196.72C120.221 194.46 122.051 192.64 124.301 192.64C126.551 192.64 128.381 194.46 128.381 196.72Z" fill="#AA4848"/>
<path d="M107.66 154.32H104.94V190.31H107.66V154.32Z" fill="#874E27"/>
<path d="M128.961 189.52H83.6406V192.63H128.961V189.52Z" fill="#874E27"/>
<path d="M125.8 135.89H87.8701V85.0099C87.8701 79.5399 92.3001 75.1099 97.7701 75.1099H115.9C121.37 75.1099 125.8 79.5399 125.8 85.0099V135.89Z" fill="#8BBA70"/>
<path d="M83.6302 128.05L79.7702 127.23C78.4202 126.94 77.5602 125.62 77.8502 124.27L84.9502 90.9201C85.2402 89.5701 86.5602 88.7101 87.9102 89.0001L91.7702 89.8201C93.1202 90.1101 93.9802 91.4301 93.6902 92.7801L86.5902 126.13C86.3002 127.47 84.9802 128.33 83.6302 128.05Z" fill="#FAAF7A"/>
<path d="M85.1899 85.0801C85.9899 81.8401 89.2599 79.8701 92.4899 80.6601C95.7299 81.4601 97.6999 84.7301 96.9099 87.9601C96.8899 88.0201 96.8599 88.0801 96.8499 88.1401L94.0899 99.3601L82.4199 96.4801L85.1599 85.3501C85.1699 85.2601 85.1699 85.1701 85.1899 85.0801Z" fill="#8BBA70"/>
<path d="M129.41 128.05L133.27 127.23C134.62 126.94 135.48 125.62 135.19 124.27L128.09 90.9201C127.8 89.5701 126.48 88.7101 125.13 89.0001L121.27 89.8201C119.92 90.1101 119.06 91.4301 119.35 92.7801L126.45 126.13C126.73 127.47 128.06 128.33 129.41 128.05Z" fill="#FAAF7A"/>
<path d="M127.85 85.0801C127.05 81.8401 123.78 79.8701 120.55 80.6601C117.31 81.4601 115.34 84.7301 116.13 87.9601C116.15 88.0201 116.18 88.0801 116.19 88.1401L118.95 99.3601L130.62 96.4801L127.88 85.3501C127.87 85.2601 127.87 85.1701 127.85 85.0801Z" fill="#6E9952"/>
<path d="M92.581 194.34L86.971 194.27L87.141 201.73L86.791 201.99L92.771 202.17L92.581 194.34Z" fill="#FAAF7A"/>
<path d="M93.051 202.16L85.821 202.02L74.751 205.44C74.751 205.44 72.761 206.06 74.471 207.02L93.691 206.02L93.051 202.16Z" fill="#C15855"/>
<path d="M125.801 135.89C125.801 135.89 124.321 150.44 112.131 153.09C99.9514 155.74 93.5514 196.76 93.5514 196.76H86.0714C86.0714 196.76 82.4514 155.5 101.271 146.69V134.75L125.801 135.89Z" fill="#5891C4"/>
<path d="M77.4507 135.77C73.0107 136.29 69.1207 137.5 66.2207 138.95C70.1807 139.47 76.7707 141.08 77.9507 146.03C78.1507 146.88 78.3107 147.73 78.4407 148.57C87.1407 149.08 96.3207 149.1 98.6107 148.75L116.591 149.24L125.051 137.9C125.051 137.9 88.7407 134.45 77.4507 135.77Z" fill="#5891C4"/>
<path d="M112.891 146.68L112.631 152.28L120.101 152.36L120.351 152.71L120.721 146.74L112.891 146.68Z" fill="#FAAF7A"/>
<path d="M120.721 146.46L120.341 153.68L123.391 164.86C123.391 164.86 123.941 166.87 124.961 165.2L124.591 145.95L120.721 146.46Z" fill="#C15855"/>
<path d="M82.0406 143.99C80.2006 143.91 78.4906 143.84 76.9106 143.79C74.6006 140.57 69.5106 139.38 66.2206 138.95C63.2206 140.45 61.2706 142.21 60.8606 143.75H60.8506C57.8506 148.85 65.4706 154.67 71.2906 154.83C77.1106 154.99 114.301 153.02 114.301 153.02V145.95C114.301 145.96 97.0206 144.64 82.0406 143.99Z" fill="#6FB2FD"/>
<path d="M102.771 67.2698L102.091 75.7698H109.141L108.171 67.0698L102.771 67.2698Z" fill="#FAAF7A"/>
<path d="M116.591 57.71C116.591 65.71 111.501 72.19 105.231 72.19C98.9511 72.19 93.8711 65.71 93.8711 57.71C93.8711 49.71 98.9611 43.23 105.231 43.23C111.501 43.22 116.591 49.71 116.591 57.71Z" fill="#FAAF7A"/>
<path d="M115.86 53.9902L114.86 63.0602C117.33 63.2802 119.53 61.4902 119.8 59.0202C120.08 56.5402 118.32 54.3102 115.86 53.9902Z" fill="#FAAF7A"/>
<path d="M94.3706 53.9902L95.3706 63.0602C92.9006 63.2802 90.7006 61.4902 90.4306 59.0202C90.1506 56.5402 91.9106 54.3102 94.3706 53.9902Z" fill="#FAAF7A"/>
<path d="M94.051 54.43C94.051 52.97 91.681 41.04 95.961 40.5C100.241 39.95 100.881 42.78 102.971 41.5C105.061 40.22 110.891 30.12 115.171 29.2C119.451 28.29 128.281 27.11 125.281 35.94C125.281 35.94 119.541 41.77 121.821 44.23C124.101 46.69 125.461 49.88 122.911 51.79C120.361 53.7 115.531 57.98 115.531 57.98L114.801 52.24L110.611 45.77C110.611 45.77 107.241 49.14 104.601 50.51C101.961 51.88 94.311 53.7 94.861 57.8C95.411 61.9 94.051 54.43 94.051 54.43Z" fill="#A55F2B"/>
<path d="M109.571 54.6099C109.571 54.6099 112.241 53.4699 114.261 55.3699C114.261 55.3799 112.351 50.6899 109.571 54.6099Z" fill="#A55F2B"/>
<path d="M96.001 55.3801C96.001 55.3801 97.911 50.6901 100.691 54.6201C100.691 54.6101 98.021 53.4701 96.001 55.3801Z" fill="#A55F2B"/>
<path d="M112.731 59.52C112.731 60.15 112.221 60.66 111.591 60.66C110.961 60.66 110.451 60.15 110.451 59.52C110.451 58.89 110.961 58.38 111.591 58.38C112.221 58.37 112.731 58.89 112.731 59.52Z" fill="#A55F2B"/>
<path d="M100.521 59.52C100.521 60.15 100.011 60.66 99.3812 60.66C98.7512 60.66 98.2412 60.15 98.2412 59.52C98.2412 58.89 98.7512 58.38 99.3812 58.38C100.001 58.37 100.521 58.89 100.521 59.52Z" fill="#A55F2B"/>
<path d="M113.951 63.0002L116.301 57.2602L116.091 56.4302C116.091 56.4302 114.061 60.6502 113.471 61.7202C105.941 58.7302 99.3211 60.6502 97.0911 61.4902C96.5011 60.4802 94.6211 57.0402 94.6211 57.0402L94.6911 59.1202L96.2711 61.9302C96.0811 62.9402 96.1111 63.9902 96.2411 64.9802L95.1011 65.3602L95.3811 66.3302L96.4411 66.0902C96.8311 67.8902 97.4611 69.2402 97.4611 69.2402C105.501 77.2102 112.701 68.9602 112.701 68.9602C113.201 68.1702 113.501 67.0902 113.681 66.0102L114.571 66.6002L114.781 65.5602L113.841 64.8602C113.911 64.1602 113.941 63.5102 113.951 63.0002Z" fill="#D4EEFF"/>
<path d="M132.78 127.06H80.4199L77.1299 97.2202H136.08L132.78 127.06Z" fill="#D4EEFF"/>
<path d="M113.08 111.18C113.08 113.58 110.09 115.53 106.41 115.53C102.72 115.53 99.7402 113.58 99.7402 111.18C99.7402 108.78 102.73 106.83 106.41 106.83C110.09 106.83 113.08 108.78 113.08 111.18Z" fill="#6FB2FD"/>
<path d="M181.48 127.04H46.5801V132.64H181.48V127.04Z" fill="#C15855"/>
<path d="M53.1298 131.9L46.0898 207.4H49.5398L60.3098 131.47L53.1298 131.9Z" fill="#C15855"/>
<path d="M175.39 131.9L182.43 207.4H178.98L168.22 131.47L175.39 131.9Z" fill="#C15855"/>
<path d="M149.271 77.8696C149.271 77.8696 148.731 99.6596 153.441 104.9H156.401C156.391 104.91 153.031 79.8896 149.271 77.8696Z" fill="#8BBA70"/>
<path d="M155.321 103.56H159.361C159.361 103.56 163.801 72.2198 160.971 66.5698C160.971 66.5698 152.221 91.0498 155.321 103.56Z" fill="#6C9B4E"/>
<path d="M159.611 103.02H165.261C165.261 103.02 168.351 85.6696 167.681 81.0996C167.011 76.5296 157.861 96.9696 159.611 103.02Z" fill="#8BBA70"/>
<path d="M171.851 103.7L164.051 103.3C164.051 103.3 169.971 84.7398 176.421 82.0498L171.851 103.7Z" fill="#6C9B4E"/>
<path d="M177.091 102.06H144.301V108.31H177.091V102.06Z" fill="#A55F2B"/>
<path d="M174.301 108.31H147.091L150.371 127.14H171.021L174.301 108.31Z" fill="#874E27"/>
<path d="M196.449 33.2998H157.649V62.4898H196.449V33.2998Z" fill="#FFE3BB"/>
<path d="M198.009 50.04C198.009 47.94 196.299 46.23 194.199 46.23C193.499 46.23 192.849 46.43 192.289 46.76C190.559 44.93 188.119 43.79 185.41 43.79C182.709 43.79 180.279 44.92 178.559 46.73L178.479 46.72L178.299 47.03C177.559 47.87 176.98 48.84 176.57 49.9L172.429 56.78L168.619 52.09L168.309 52.15C167.429 51.45 166.319 51.01 165.109 51.01C163.159 51.01 161.49 52.1 160.6 53.69L160.32 53.75L155.729 62.25L156.02 63.32H198.309L198.009 50.04Z" fill="#EAB568"/>
<path d="M176.919 44.57C176.919 46.94 174.999 48.87 172.619 48.87C170.249 48.87 168.319 46.95 168.319 44.57C168.319 42.19 170.239 40.27 172.619 40.27C174.989 40.27 176.919 42.2 176.919 44.57Z" fill="#EAB568"/>
<path d="M153.13 29.8999V65.8899H200.97V29.8999H153.13ZM196.45 62.4899H157.65V33.2999H196.45V62.4899Z" fill="#FFD28A"/>
<path d="M72.4303 57.5601H36.4703C32.9403 57.5601 30.0703 60.4301 30.0703 63.9601V77.7301C30.0703 81.2601 32.9403 84.1301 36.4703 84.1301H45.8703C47.3703 88.4201 53.6003 92.0101 53.6003 92.0101C51.5303 90.5901 51.4903 86.2601 51.6003 84.1301H72.4303C75.9603 84.1301 78.8303 81.2601 78.8303 77.7301V63.9601C78.8303 60.4201 75.9603 57.5601 72.4303 57.5601Z" fill="#D4EEFF"/>
<path d="M73.1604 63.1499H35.8604V64.4099H73.1604V63.1499Z" fill="#6FB2FD"/>
<path d="M73.1604 67.71H35.8604V68.97H73.1604V67.71Z" fill="#6FB2FD"/>
<path d="M73.1604 72.2598H35.8604V73.5198H73.1604V72.2598Z" fill="#6FB2FD"/>
<path d="M60.2803 76.8198H35.8604V78.0798H60.2803V76.8198Z" fill="#6FB2FD"/>
<path d="M16.5097 335.59C18.4997 352.28 22.4797 366.98 27.2297 377.04C29.4497 365.93 29.8397 350.57 27.8497 333.88C25.8597 317.19 21.8797 302.49 17.1297 292.43C14.8997 303.54 14.5097 318.9 16.5097 335.59Z" fill="#DD992C"/>
<path d="M23.5799 330.12C22.5499 348.5 23.8199 365.2 26.6799 377.11C30.8399 365.7 33.9699 349.31 34.9999 330.93C36.0299 312.55 34.7599 295.85 31.8999 283.94C27.7299 295.35 24.6099 311.74 23.5799 330.12Z" fill="#FFDB09"/>
<path d="M34.6491 335.61C29.0691 350.85 26.0691 365.52 25.7891 376.69C32.5891 368.53 39.6491 355.75 45.2291 340.51C50.8091 325.27 53.8091 310.6 54.0891 299.43C47.2991 307.59 40.2391 320.37 34.6491 335.61Z" fill="#FFDB09"/>
<path d="M10.7295 341.56C15.4095 356.66 21.7095 369.44 27.9995 377.71C28.3495 366.83 26.2195 352.42 21.5295 337.32C16.8495 322.22 10.5495 309.44 4.25954 301.17C3.90954 312.05 6.04954 326.47 10.7295 341.56Z" fill="#FFDB09"/>
<path d="M40.6727 335.179C45.5299 311.409 46.9453 291.625 43.8342 290.989C40.723 290.353 34.2633 309.107 29.4061 332.876C24.5489 356.646 23.1334 376.43 26.2446 377.066C29.3558 377.701 35.8154 358.948 40.6727 335.179Z" fill="#DD992C"/>
<path d="M37.9993 394.61H17.8193L15.5693 366.74H40.2393L37.9993 394.61Z" fill="#AA4848"/>
<path d="M41.1198 368.13H14.6898L13.2998 359.55H42.5198L41.1198 368.13Z" fill="#C15855"/>
<path d="M206.219 366.35H87.2793V327.65C87.2793 308.54 102.769 293.05 121.879 293.05H206.219V366.35Z" fill="#9DC8E0"/>
<path d="M206.219 366.35H46.6295C38.6795 366.35 32.2295 372.8 32.2295 380.75V400.37C32.2295 408.32 38.6795 414.77 46.6295 414.77H206.219V366.35Z" fill="#5891C4"/>
<path d="M135.04 297.96L135.63 303.36L141.11 302.51L138.92 295.4L135.04 297.96Z" fill="#C15855"/>
<path d="M122.41 283.95C122.91 284.45 125.68 275.43 126.57 275.26C127.46 275.09 135.33 284.45 139.04 284.28C139.04 284.28 138.74 291.96 137.85 293.13C136.96 294.3 148.54 294.13 151.51 289.29C154.48 284.45 154.48 283.94 152.25 280.94C150.02 277.93 152.55 278.6 156.85 274.76C161.16 270.92 163.53 264.07 160.56 262.07C157.59 260.07 151.8 259.23 142.74 266.41C142.74 266.41 139.47 269.42 129.97 264.41C120.47 259.4 122.4 273.43 123.88 274.43C123.9 274.43 115.88 277.44 122.41 283.95Z" fill="#483C3D"/>
<path d="M125.92 282.81C125.71 282.77 125.5 282.74 125.27 282.74C123.13 282.74 121.39 284.69 121.39 287.1C121.39 289.51 123.13 291.46 125.27 291.46C125.49 291.46 125.71 291.43 125.92 291.39V282.81Z" fill="#A04040"/>
<path d="M122.65 285.84C122.85 293.63 126.67 299.81 132.39 299.81C138.1 299.81 142.73 293.5 142.73 285.71C142.73 277.92 138.1 271.61 132.39 271.61C126.67 271.61 122.28 271.01 122.65 285.84Z" fill="#C15855"/>
<path d="M141.359 282.81C141.569 282.77 141.779 282.74 142.009 282.74C144.149 282.74 145.889 284.69 145.889 287.1C145.889 289.51 144.149 291.46 142.009 291.46C141.789 291.46 141.569 291.43 141.359 291.39V282.81Z" fill="#C15855"/>
<path d="M122.409 283.95C122.409 283.95 124.019 277.99 124.909 276.78L125.919 274.57C125.919 274.57 136.759 283.2 139.669 283.34C139.669 283.34 141.699 287.55 141.699 287.33C141.699 287.12 142.779 282.2 142.779 282.2L142.339 273.29L135.049 268.3L128.899 268.23L126.559 269.66L124.719 272.73L123.329 275.8L122.189 278.22L122.409 283.95Z" fill="#483C3D"/>
<path d="M123.81 283.71C123.81 283.71 124.24 281.57 126.75 283.56L123.81 283.71Z" fill="#483C3D"/>
<path d="M133.159 283.22L137.269 282.78C137.269 282.78 135.749 280.54 133.159 283.22Z" fill="#483C3D"/>
<path d="M137.09 286.63C137.09 287.36 136.57 287.94 135.92 287.94C135.27 287.94 134.75 287.35 134.75 286.63C134.75 285.9 135.27 285.32 135.92 285.32C136.57 285.31 137.09 285.9 137.09 286.63Z" fill="#483C3D"/>
<path d="M126.579 286.63C126.579 287.36 126.059 287.94 125.409 287.94C124.759 287.94 124.239 287.35 124.239 286.63C124.239 285.9 124.759 285.32 125.409 285.32C126.049 285.31 126.579 285.9 126.579 286.63Z" fill="#483C3D"/>
<path d="M142.18 284.94L138.76 288.94L138.82 288.99C128.93 287.16 122.75 290.17 122.75 290.17C122.2 298.01 130.88 300.09 130.88 300.09C136.62 300.86 138.81 296.78 138.81 296.78C139.15 296.01 139.36 295.17 139.49 294.34L140.7 294.44L141.09 293.46L139.62 293.11C139.72 291.59 139.58 290.23 139.49 289.55L141.82 286.68L142.18 284.94Z" fill="#D4EEFF"/>
<path d="M124.05 356.29L100.96 364.87H77.0295C77.0295 364.87 71.0195 367.43 70.0895 371.51C69.1595 375.59 60.7695 415.19 60.7695 415.19H67.8095L83.5495 377.21H112.03C112.03 377.21 139.55 378.14 142.66 369.29C145.77 360.44 150.38 356.13 150.38 356.13C150.38 356.13 124.05 356.68 124.05 356.29Z" fill="#DD992C"/>
<path d="M60.7693 415.2L58.9893 423.32L64.9293 423.56L67.8193 415.2H60.7693Z" fill="#C15855"/>
<path d="M64.9293 423.56L58.9793 423.33L44.5193 427.94C44.5193 427.94 41.4193 429.8 46.3793 429.8C51.3393 429.8 64.1493 429.22 64.1493 429.22L64.9293 423.56Z" fill="#DD992C"/>
<path d="M134.989 356.29L124.959 364.87H101.039C101.039 364.87 95.0293 367.43 94.0993 371.51C93.1693 375.59 84.7793 415.19 84.7793 415.19H91.8193L107.559 377.21H136.039C136.039 377.21 146.909 378.14 150.019 369.29C153.129 360.44 151.779 356.13 151.779 356.13C151.779 356.13 134.989 356.68 134.989 356.29Z" fill="#FFDB09"/>
<path d="M84.7793 415.2L82.9893 423.32L88.9293 423.56L91.8193 415.2H84.7793Z" fill="#C15855"/>
<path d="M88.9293 423.56L82.9793 423.33L68.5193 427.94C68.5193 427.94 65.4193 429.8 70.3793 429.8C75.3393 429.8 88.1493 429.22 88.1493 429.22L88.9293 423.56Z" fill="#FFDB09"/>
<path d="M130.89 318.049C130.89 318.049 130.18 336.179 122.53 344.669C114.88 353.159 101.83 358.209 101.83 358.209L98.2598 350.749C98.2598 350.749 110.4 345.819 116.62 337.789C122.84 329.759 122.64 321.039 122.74 319.659L130.89 318.049Z" fill="#843A3A"/>
<path d="M134.04 311.659C134.39 308.559 132.19 305.579 128.98 304.939C125.77 304.299 122.79 306.239 122.17 309.289H122.16L122.15 309.349C122.14 309.409 122.11 309.469 122.1 309.529C122.09 309.589 122.1 309.659 122.09 309.719L120.39 320.449L132.31 322.839L134.08 311.679L134.04 311.659Z" fill="#5891C4"/>
<path d="M153.539 357.55H123.659V308.4C123.659 306.65 124.789 305.18 126.289 304.97L144.299 302.39C145.939 302.16 147.429 303.49 147.649 305.38L153.539 357.55Z" fill="#5891C4"/>
<path d="M149.12 317.299C149.12 317.299 148.41 335.429 140.76 343.919C133.11 352.409 109.67 361.839 109.67 361.839L106.1 354.379C106.1 354.379 128.62 345.059 134.84 337.029C141.06 328.999 140.86 320.279 140.96 318.899L149.12 317.299Z" fill="#C15855"/>
<path d="M149.22 307.019C148.59 303.969 145.6 302.039 142.4 302.689C139.19 303.339 136.99 306.329 137.35 309.429H137.34L137.35 309.489C137.36 309.549 137.35 309.619 137.36 309.679C137.37 309.739 137.4 309.799 137.41 309.859L139.13 320.589L151.04 318.169L149.25 307.009L149.22 307.019Z" fill="#5891C4"/>
<path d="M111.021 364.886H136.041V362.636H111.021V364.886Z" fill="#AFCFE2"/>
<path d="M75.3294 364.8H115.189L108.719 329.66H68.8594L75.3294 364.8Z" fill="#D4EEFF"/>
<path d="M85.4297 346.92C85.4297 348.99 87.7197 350.66 90.5497 350.66C93.3797 350.66 95.6697 348.99 95.6697 346.92C95.6697 344.85 93.3797 343.18 90.5497 343.18C87.7197 343.18 85.4297 344.86 85.4297 346.92Z" fill="#8BBA70"/>
<path d="M93.4496 272.09H55.5896C51.8696 272.09 48.8496 275.48 48.8496 279.67V295.98C48.8496 300.17 51.8696 303.56 55.5896 303.56H65.4896C67.0696 308.64 73.6296 312.89 73.6296 312.89C71.4496 311.21 71.3996 306.08 71.5196 303.56H93.4496C97.1696 303.56 100.19 300.17 100.19 295.98V279.67C100.19 275.49 97.1696 272.09 93.4496 272.09Z" fill="#AAD88D"/>
<path d="M94.2192 278.71H54.9492V280.2H94.2192V278.71Z" fill="#6B9351"/>
<path d="M94.2192 284.11H54.9492V285.6H94.2192V284.11Z" fill="#6B9351"/>
<path d="M94.2192 289.51H54.9492V291H94.2192V289.51Z" fill="#6B9351"/>
<path d="M80.6592 294.91H54.9492V296.4H80.6592V294.91Z" fill="#6B9351"/>
<path d="M340.6 299.7L339.58 306.83H346.71L347.95 295.97L340.6 299.7Z" fill="#EA937F"/>
<path d="M329.641 289.44C329.861 297.02 334.041 303.03 340.301 303.03C346.561 303.03 351.621 296.89 351.621 289.31C351.621 281.73 346.551 275.59 340.301 275.59C334.051 275.59 329.231 275.01 329.641 289.44Z" fill="#FFB29D"/>
<path d="M350.11 286.489C350.34 286.449 350.58 286.419 350.82 286.419C353.16 286.419 355.06 288.319 355.06 290.659C355.06 292.999 353.16 294.899 350.82 294.899C350.58 294.899 350.34 294.869 350.11 294.829V286.489Z" fill="#FFB29D"/>
<path d="M333.221 286.489C332.991 286.449 332.751 286.419 332.511 286.419C330.171 286.419 328.271 288.319 328.271 290.659C328.271 292.999 330.171 294.899 332.511 294.899C332.751 294.899 332.991 294.869 333.221 294.829V286.489Z" fill="#FFB29D"/>
<path d="M329.86 288.81C329.86 288.81 340.15 279.32 347.07 279.48C347.07 279.48 349 292.5 349.32 292.02C349.64 291.54 352.58 291.48 353.66 288.96C354.14 287.83 357.52 281.08 353.5 277.54C349.48 274.02 328.41 262.76 329.86 288.81Z" fill="#483C3D"/>
<path d="M351.22 277.36C352.02 277.2 360.87 272.21 363.12 278C365.37 283.79 361.19 295.85 371.32 296.17C381.45 296.49 389.33 284.43 386.27 276.07C386.27 276.07 383.7 271.09 381.12 271.41C381.12 271.41 382.73 282.34 376.3 280.41C369.87 278.48 369.87 273.98 368.42 271.24C366.97 268.51 355.56 260.14 348.64 274.62L348 276.55L351.22 277.36Z" fill="#483C3D"/>
<path d="M342.521 284.91C342.521 284.91 345.371 284.34 347.271 286.05C347.261 286.05 346.381 282.82 342.521 284.91Z" fill="#483C3D"/>
<path d="M347.26 286.05C347.26 286.05 346.37 282.82 342.51 284.91C342.52 284.91 345.36 284.34 347.26 286.05Z" fill="#483C3D"/>
<path d="M337.2 285.04C337.2 285.04 336.31 281.81 332.45 283.9C332.46 283.9 335.3 283.33 337.2 285.04Z" fill="#483C3D"/>
<path d="M342.94 290.78C343.569 290.78 344.08 290.269 344.08 289.64C344.08 289.01 343.569 288.5 342.94 288.5C342.31 288.5 341.8 289.01 341.8 289.64C341.8 290.269 342.31 290.78 342.94 290.78Z" fill="#483C3D"/>
<path d="M334.801 288.64C334.801 289.23 334.321 289.72 333.721 289.72C333.121 289.72 332.641 289.24 332.641 288.64C332.641 288.05 333.121 287.56 333.721 287.56C334.321 287.56 334.801 288.05 334.801 288.64Z" fill="#483C3D"/>
<path d="M347.36 294.76L350.98 291.18L350.9 290.26L347.1 293.61C338.88 289.78 330.3 291.82 330.3 291.82C330.22 292.88 329.39 299.25 335.83 302.05C342.27 304.85 345.61 301.75 345.61 301.75C345.93 301.41 346.24 300.44 346.52 299.3L348.47 299.12L349.1 298.41H346.73C346.99 297.07 347.22 295.67 347.36 294.76Z" fill="#D4EEFF"/>
<path d="M358.021 380.219L362.261 420.729H363.921L361.731 380.149L358.021 380.219Z" fill="#C15855"/>
<path d="M335.141 380.219L330.911 420.729H329.241L331.431 380.149L335.141 380.219Z" fill="#C15855"/>
<path d="M368.351 337.85C368.351 335.11 366.131 332.89 363.391 332.89C360.651 332.89 358.431 335.11 358.431 337.85V370.07H330.051C327.561 370.07 325.551 372.09 325.551 374.57V377.22C325.551 379.71 327.571 381.72 330.051 381.72H363.721C366.211 381.72 368.221 379.7 368.221 377.22V374.7C368.301 374.35 368.351 373.99 368.351 373.61V337.85Z" fill="#E03F1B"/>
<path d="M323.431 319.4C323.431 319.4 321.431 333.13 319.451 335.6C319.451 335.6 300.641 331.87 293.851 331.87C293.851 331.87 282.241 333.35 280.511 337.67H295.581C295.581 337.67 314.601 345.18 321.511 344.19C328.431 343.2 329.261 338.25 329.891 335.1C330.531 331.9 332.521 321.25 332.521 321.25L323.431 319.4Z" fill="#EA937F"/>
<path d="M335.581 313.58C336.461 310.44 334.621 307.19 331.481 306.31C328.341 305.43 325.091 307.27 324.211 310.41C324.191 310.47 324.191 310.53 324.181 310.6L321.181 321.35L332.521 324.51L335.531 313.73C335.541 313.67 335.571 313.63 335.581 313.58Z" fill="#E0BF1B"/>
<path d="M360.041 359.25H330.001V308.92C330.001 307.38 331.251 306.13 332.791 306.13H360.041V359.25Z" fill="#FFDB09"/>
<path d="M355.06 322.98C355.06 322.98 357.41 335.82 355.43 338.29C355.43 338.29 333.7 333.35 326.91 333.35C326.91 333.35 315.3 334.83 313.57 339.15H328.64C328.64 339.15 350 348.29 356.92 347.3C363.84 346.31 365.69 340.51 365.56 337.3C365.44 334.09 364.33 321.37 364.33 321.37L355.06 322.98Z" fill="#FFB29D"/>
<path d="M363.41 311.1C362.73 307.91 359.6 305.88 356.41 306.55C353.22 307.23 351.19 310.36 351.86 313.55C351.87 313.61 351.9 313.67 351.92 313.73L354.24 324.65L365.75 322.21L363.43 311.26C363.42 311.2 363.42 311.15 363.41 311.1Z" fill="#FFE97B"/>
<path d="M310.74 263.19H274.42C270.85 263.19 267.96 266.08 267.96 269.65V283.56C267.96 287.13 270.85 290.02 274.42 290.02H283.92C285.43 294.35 291.72 297.97 291.72 297.97C289.63 296.54 289.58 292.17 289.7 290.02H310.73C314.3 290.02 317.19 287.13 317.19 283.56V269.65C317.2 266.09 314.31 263.19 310.74 263.19Z" fill="#F9988F"/>
<path d="M311.47 268.84H273.8V270.11H311.47V268.84Z" fill="#B54D31"/>
<path d="M311.47 273.44H273.8V274.71H311.47V273.44Z" fill="#B54D31"/>
<path d="M311.47 278.05H273.8V279.32H311.47V278.05Z" fill="#B54D31"/>
<path d="M298.46 282.65H273.8V283.92H298.46V282.65Z" fill="#B54D31"/>
<path d="M309.11 340.735H333.11V338.815H309.11V340.735Z" fill="#AFCFE2"/>
<path d="M274.87 340.66H313.11L306.91 310.69H268.67L274.87 340.66Z" fill="#D4EEFF"/>
<path d="M284.57 325.41C284.57 327.17 286.77 328.6 289.48 328.6C292.19 328.6 294.39 327.17 294.39 325.41C294.39 323.65 292.19 322.22 289.48 322.22C286.76 322.22 284.57 323.65 284.57 325.41Z" fill="#8BBA70"/>
<path d="M412.54 228.63H411.95V232.24H412.54V228.63Z" fill="#603939"/>
<path d="M427.119 251.504C429.094 242.931 423.745 234.379 415.171 232.404C406.598 230.429 398.047 235.778 396.071 244.352C394.096 252.925 399.445 261.477 408.019 263.452C416.592 265.427 425.144 260.078 427.119 251.504Z" fill="#E03F1B"/>
<path d="M424.971 247.95C424.971 255.33 418.991 261.31 411.611 261.31C404.231 261.31 398.251 255.33 398.251 247.95C398.251 240.57 404.231 234.59 411.611 234.59C418.991 234.58 424.971 240.57 424.971 247.95Z" fill="white"/>
<path d="M398.563 248.149V248.549H401.013V248.149H398.563Z" fill="#603939"/>
<path d="M411.745 261.061H412.145V258.611H411.745V261.061Z" fill="#603939"/>
<path d="M424.735 248.512V248.112H422.285V248.512H424.735Z" fill="#603939"/>
<path d="M412.241 235.09H411.841V236.19H412.241V235.09Z" fill="#603939"/>
<path d="M405.65 236.744L405.304 236.944L405.853 237.897L406.2 237.697L405.65 236.744Z" fill="#603939"/>
<path d="M400.707 241.507L400.507 241.854L401.459 242.404L401.659 242.058L400.707 241.507Z" fill="#603939"/>
<path d="M400.572 254.651L400.772 254.998L401.725 254.447L401.525 254.101L400.572 254.651Z" fill="#603939"/>
<path d="M405.437 259.203L405.783 259.403L406.334 258.451L405.987 258.251L405.437 259.203Z" fill="#603939"/>
<path d="M418.362 259.387L418.708 259.187L418.158 258.235L417.811 258.435L418.362 259.387Z" fill="#603939"/>
<path d="M422.903 254.697L423.104 254.351L422.151 253.8L421.951 254.147L422.903 254.697Z" fill="#603939"/>
<path d="M423.13 242.212L422.93 241.865L421.977 242.415L422.177 242.761L423.13 242.212Z" fill="#603939"/>
<path d="M418.735 237.312L418.389 237.112L417.838 238.064L418.185 238.264L418.735 237.312Z" fill="#603939"/>
<path d="M419.916 241.026L419.354 240.457L411.309 248.391L411.871 248.961L419.916 241.026Z" fill="#E03F1B"/>
<path d="M416.592 250.836L412.059 247.499L411.324 248.497L415.857 251.835L416.592 250.836Z" fill="#E03F1B"/>
<path d="M456.08 320.16H377.63V326.86H456.08V320.16Z" fill="#C15855"/>
<path d="M390.419 297.25H384.189V320.16H390.419V297.25Z" fill="#6FB2FD"/>
<path d="M396.18 298.53H389.95V320.16H396.18V298.53Z" fill="#8BBA70"/>
<path d="M401.94 296.73H395.71V320.17H401.94V296.73Z" fill="#FFDB09"/>
<path d="M407.69 298.53H401.46V320.16H407.69V298.53Z" fill="#E03F1B"/>
<path d="M413.171 298.095L407.657 300.994L417.724 320.139L423.238 317.239L413.171 298.095Z" fill="#8BBA70"/>
<path d="M358.84 358.67L332.52 358.02L320.11 363L304.87 367.48C301.61 368.46 295.33 370.3 293.07 371.86L281.13 409.65L287.61 412L303.33 382.33C308.34 377.97 319.03 377.46 322.54 377.32C326.59 377.16 339.24 377.16 342.97 372.29C346.69 367.43 358.84 358.67 358.84 358.67Z" fill="#2D2425"/>
<path d="M281.13 409.649L287.61 411.999L283.61 420.439L277.92 418.049L281.13 409.649Z" fill="#FFB29D"/>
<path d="M276.84 416.97L283.95 419.99L282.29 423.95L265.95 416.18C265.95 416.18 265.21 414.75 266.44 414.69C267.67 414.63 276.84 416.97 276.84 416.97Z" fill="#E03F1B"/>
<path d="M358.71 358.35L332.39 357.7L332.77 363L317.53 367.48C314.27 368.46 307.99 370.3 305.73 371.86L293.79 409.65L300.27 412L315.99 382.33C321 377.97 331.69 377.46 335.2 377.32C339.25 377.16 351.9 377.16 355.63 372.29C359.36 367.43 358.71 358.35 358.71 358.35Z" fill="#483C3D"/>
<path d="M293.79 409.65L300.27 412L296.27 420.44L290.58 418.05L293.79 409.65Z" fill="#FFB29D"/>
<path d="M289.51 416.97L296.62 419.99L294.96 423.95L278.62 416.18C278.62 416.18 277.88 414.75 279.11 414.69C280.33 414.63 289.51 416.97 289.51 416.97Z" fill="#E03F1B"/>
<path d="M332.27 340.58H262.21V344.37H332.27V340.58Z" fill="#C15855"/>
<path d="M271.37 342.63H277.99L257.8 423.26H255.11L271.37 342.63Z" fill="#C15855"/>
<path d="M321.6 342.63H314.98L335.17 423.26H337.86L321.6 342.63Z" fill="#C15855"/>
</svg>
